mattafont.ufo
<glyph name="exclam" format="1">
  <advance width="267"/>
  <unicode hex="0021"/>
  <outline>
    <contour>
      <point x="191" y="222" type="curve" smooth="yes"/>
      <point x="147" y="206"/>
      <point x="102" y="193"/>
      <point x="72" y="220" type="curve"/>
      <point x="39" y="450"/>
      <point x="35" y="742"/>
      <point x="51" y="747" type="curve" smooth="yes"/>
      <point x="65" y="751"/>
      <point x="221" y="777"/>
      <point x="223" y="747" type="curve" smooth="yes"/>
      <point x="225" y="722"/>
      <point x="207" y="228"/>
    </contour>
    <contour>
      <point x="113" y="147" type="curve" smooth="yes"/>
      <point x="158" y="151"/>
      <point x="216" y="120"/>
      <point x="215" y="73" type="curve" smooth="yes"/>
      <point x="214" y="26"/>
      <point x="163" y="-6"/>
      <point x="125" y="-6" type="curve" smooth="yes"/>
      <point x="88" y="-7"/>
      <point x="46" y="19"/>
      <point x="50" y="69" type="curve" smooth="yes"/>
      <point x="55" y="120"/>
      <point x="68" y="144"/>
    </contour>
  </outline>
</glyph>
<glyph name="dollar" format="1">
  <advance width="500"/>
  <unicode hex="0024"/>
  <outline>
    <contour>
      <point x="223" y="445" type="curve" smooth="yes"/>
      <point x="221" y="420"/>
      <point x="269" y="417"/>
      <point x="314" y="395" type="curve" smooth="yes"/>
      <point x="347" y="379"/>
      <point x="382" y="366"/>
      <point x="382" y="309" type="curve" smooth="yes"/>
      <point x="382" y="232"/>
      <point x="273" y="202"/>
      <point x="171" y="211" type="curve" smooth="yes"/>
      <point x="122" y="215"/>
      <point x="144" y="276"/>
      <point x="158" y="297" type="curve" smooth="yes"/>
      <point x="168" y="319"/>
      <point x="293" y="285"/>
      <point x="293" y="310" type="curve" smooth="yes"/>
      <point x="293" y="339"/>
      <point x="237" y="334"/>
      <point x="191" y="360" type="curve" smooth="yes"/>
      <point x="155" y="381"/>
      <point x="133" y="407"/>
      <point x="137" y="447" type="curve" smooth="yes"/>
      <point x="143" y="532"/>
      <point x="268" y="539"/>
      <point x="314" y="528" type="curve" smooth="yes"/>
      <point x="362" y="517"/>
      <point x="373" y="450"/>
      <point x="336" y="445" type="curve" smooth="yes"/>
      <point x="291" y="439"/>
      <point x="224" y="465"/>
    </contour>
    <contour>
      <point x="229" y="550" type="curve"/>
      <point x="231" y="544"/>
      <point x="192" y="590"/>
      <point x="212" y="607" type="curve"/>
      <point x="232" y="624"/>
      <point x="263" y="617"/>
      <point x="273" y="610" type="curve"/>
      <point x="288" y="603"/>
      <point x="289" y="557"/>
      <point x="273" y="549" type="curve" smooth="yes"/>
      <point x="257" y="541"/>
      <point x="231" y="544"/>
    </contour>
    <contour>
      <point x="239" y="195"/>
      <point x="265" y="204"/>
      <point x="282" y="204" type="curve" smooth="yes"/>
      <point x="299" y="204"/>
      <point x="296" y="176"/>
      <point x="296" y="160" type="curve" smooth="yes"/>
      <point x="296" y="144"/>
      <point x="238" y="138"/>
      <point x="233" y="150" type="curve" smooth="yes"/>
      <point x="229" y="159"/>
      <point x="224" y="187"/>
      <point x="239" y="195" type="curve"/>
    </contour>
  </outline>
</glyph>
<glyph name="parenleft" format="1">
  <advance width="423"/>
  <unicode hex="0028"/>
  <outline>
    <contour>
      <point x="200" y="834" type="curve" smooth="yes"/>
      <point x="175" y="825"/>
      <point x="40" y="586"/>
      <point x="41" y="313" type="curve" smooth="yes"/>
      <point x="42" y="95"/>
      <point x="148" y="-71"/>
      <point x="162" y="-85" type="curve"/>
      <point x="199" y="-106"/>
      <point x="290" y="-120"/>
      <point x="326" y="-81" type="curve"/>
      <point x="329" y="-76"/>
      <point x="208" y="139"/>
      <point x="211" y="312" type="curve"/>
      <point x="214" y="572"/>
      <point x="362" y="825"/>
      <point x="353" y="832" type="curve" smooth="yes"/>
      <point x="338" y="844"/>
      <point x="225" y="843"/>
    </contour>
  </outline>
</glyph>
<glyph name="parenright" format="1">
  <advance width="500"/>
  <unicode hex="0029"/>
  <outline>
    <contour>
      <point x="187" y="754" type="curve" smooth="yes"/>
      <point x="162" y="763"/>
      <point x="129" y="764"/>
      <point x="114" y="752" type="curve" smooth="yes"/>
      <point x="105" y="745"/>
      <point x="223" y="582"/>
      <point x="226" y="322" type="curve"/>
      <point x="229" y="149"/>
      <point x="138" y="-6"/>
      <point x="141" y="-11" type="curve"/>
      <point x="177" y="-50"/>
      <point x="209" y="-46"/>
      <point x="246" y="-25" type="curve"/>
      <point x="260" y="-11"/>
      <point x="365" y="95"/>
      <point x="366" y="313" type="curve" smooth="yes"/>
      <point x="367" y="586"/>
      <point x="212" y="745"/>
    </contour>
  </outline>
</glyph>
<glyph name="plus" format="1">
  <advance width="506"/>
  <unicode hex="002B"/>
  <outline>
    <contour>
      <point x="193" y="543" type="curve"/>
      <point x="220" y="551"/>
      <point x="290" y="550"/>
      <point x="315" y="543" type="curve"/>
      <point x="323" y="512"/>
      <point x="323" y="133"/>
      <point x="312" y="103" type="curve"/>
      <point x="292" y="95"/>
      <point x="206" y="92"/>
      <point x="185" y="99" type="curve"/>
      <point x="173" y="142"/>
      <point x="178" y="526"/>
    </contour>
    <contour>
      <point x="38" y="385" type="curve" smooth="yes"/>
      <point x="50" y="400"/>
      <point x="447" y="391"/>
      <point x="460" y="386" type="curve" smooth="yes"/>
      <point x="473" y="381"/>
      <point x="479" y="279"/>
      <point x="451" y="264" type="curve" smooth="yes"/>
      <point x="423" y="249"/>
      <point x="42" y="249"/>
      <point x="37" y="270" type="curve" smooth="yes"/>
      <point x="32" y="291"/>
      <point x="26" y="370"/>
    </contour>
  </outline>
</glyph>
<glyph name="comma" format="1">
  <advance width="251"/>
  <unicode hex="002C"/>
  <outline>
    <contour>
      <point x="114" y="93" type="curve" smooth="yes"/>
      <point x="113" y="93" type="line"/>
      <point x="118" y="93"/>
      <point x="107" y="101"/>
      <point x="110" y="97" type="curve"/>
      <point x="82" y="144"/>
      <point x="42" y="14"/>
      <point x="69" y="10" type="curve" smooth="yes"/>
      <point x="90" y="6"/>
      <point x="132" y="52"/>
      <point x="134" y="83" type="curve" smooth="yes"/>
      <point x="134" y="93"/>
      <point x="118" y="92"/>
    </contour>
    <contour>
      <point x="134" y="287" type="line"/>
      <point x="242" y="276"/>
      <point x="334" y="181"/>
      <point x="328" y="73" type="curve" smooth="yes"/>
      <point x="320" y="-76"/>
      <point x="114" y="-194"/>
      <point x="41" y="-184" type="curve" smooth="yes"/>
      <point x="-66" y="-166"/>
      <point x="86" y="-244"/>
      <point x="-58" y="-3" type="curve" smooth="yes"/>
      <point x="-149" y="149"/>
      <point x="20" y="299"/>
      <point x="135" y="287" type="curve"/>
    </contour>
    <contour>
      <point x="124" y="190" type="curve" smooth="yes"/>
      <point x="69" y="196"/>
      <point x="-21" y="125"/>
      <point x="26" y="47" type="curve" smooth="yes"/>
      <point x="84" y="-50"/>
      <point x="-12" y="-76"/>
      <point x="55" y="-87" type="curve" smooth="yes"/>
      <point x="102" y="-94"/>
      <point x="226" y="-12"/>
      <point x="231" y="78" type="curve" smooth="yes"/>
      <point x="234" y="137"/>
      <point x="180" y="184"/>
    </contour>
  </outline>
</glyph>
<glyph name="period" format="1">
  <advance width="187"/>
  <unicode hex="002E"/>
  <outline>
    <contour>
      <point x="72" y="147" type="curve" smooth="yes"/>
      <point x="117" y="151"/>
      <point x="175" y="120"/>
      <point x="174" y="73" type="curve" smooth="yes"/>
      <point x="173" y="26"/>
      <point x="122" y="-6"/>
      <point x="84" y="-6" type="curve" smooth="yes"/>
      <point x="47" y="-7"/>
      <point x="5" y="19"/>
      <point x="9" y="69" type="curve" smooth="yes"/>
      <point x="14" y="120"/>
      <point x="27" y="144"/>
    </contour>
  </outline>
</glyph>
<glyph name="zero" format="1">
  <advance width="582"/>
  <unicode hex="0030"/>
  <outline>
    <contour>
      <point x="285" y="209" type="curve" smooth="yes"/>
      <point x="213" y="215"/>
      <point x="190" y="283"/>
      <point x="199" y="383" type="curve" smooth="yes"/>
      <point x="208" y="484"/>
      <point x="241" y="570"/>
      <point x="313" y="564" type="curve" smooth="yes"/>
      <point x="384" y="558"/>
      <point x="406" y="467"/>
      <point x="398" y="367" type="curve" smooth="yes"/>
      <point x="388" y="266"/>
      <point x="356" y="203"/>
    </contour>
    <contour>
      <point x="284" y="-10" type="curve" smooth="yes"/>
      <point x="477" y="-10"/>
      <point x="554" y="170"/>
      <point x="554" y="378" type="curve" smooth="yes"/>
      <point x="554" y="586"/>
      <point x="477" y="765"/>
      <point x="284" y="765" type="curve" smooth="yes"/>
      <point x="90" y="765"/>
      <point x="13" y="586"/>
      <point x="13" y="378" type="curve" smooth="yes"/>
      <point x="13" y="170"/>
      <point x="90" y="-10"/>
    </contour>
    <contour>
      <point x="230" y="280" type="curve"/>
      <point x="231" y="275" type="line"/>
      <point x="231" y="275"/>
      <point x="244" y="243"/>
      <point x="268" y="237" type="curve" smooth="yes"/>
      <point x="292" y="231"/>
      <point x="377" y="468"/>
      <point x="366" y="484" type="curve" smooth="yes"/>
      <point x="355" y="500"/>
      <point x="347" y="533"/>
      <point x="326" y="527" type="curve" smooth="yes"/>
      <point x="305" y="521"/>
      <point x="227" y="281"/>
    </contour>
  </outline>
</glyph>
<glyph name="one" format="1">
  <advance width="500"/>
  <unicode hex="0031"/>
  <outline>
    <contour>
      <point x="333" y="3" type="curve" smooth="yes"/>
      <point x="292" y="-13"/>
      <point x="183" y="1"/>
      <point x="183" y="1" type="curve"/>
      <point x="183" y="1"/>
      <point x="183" y="1"/>
      <point x="183" y="1" type="curve"/>
      <point x="133" y="54"/>
      <point x="167" y="743"/>
      <point x="183" y="748" type="curve" smooth="yes"/>
      <point x="197" y="752"/>
      <point x="320" y="765"/>
      <point x="345" y="748" type="curve" smooth="yes"/>
      <point x="370" y="731"/>
      <point x="374" y="19"/>
    </contour>
    <contour>
      <point x="78" y="692" type="curve" smooth="yes"/>
      <point x="91" y="730"/>
      <point x="161" y="745"/>
      <point x="183" y="747" type="curve" smooth="yes"/>
      <point x="205" y="749"/>
      <point x="267" y="762"/>
      <point x="305" y="748" type="curve" smooth="yes"/>
      <point x="343" y="734"/>
      <point x="336" y="619"/>
      <point x="279" y="597" type="curve" smooth="yes"/>
      <point x="208" y="570"/>
      <point x="82" y="529"/>
      <point x="76" y="558" type="curve" smooth="yes"/>
      <point x="70" y="587"/>
      <point x="65" y="654"/>
    </contour>
  </outline>
</glyph>
<glyph name="two" format="1">
  <advance width="500"/>
  <unicode hex="0032"/>
  <outline>
    <contour>
      <point x="253.0" y="755.0" type="curve" smooth="yes"/>
      <point x="346.0" y="755.0"/>
      <point x="448.0" y="723.0"/>
      <point x="450.0" y="595.0" type="curve" smooth="yes"/>
      <point x="454.0" y="331.0"/>
      <point x="213.0" y="253.0"/>
      <point x="213.0" y="192.0" type="curve" smooth="yes"/>
      <point x="213.0" y="177.0"/>
      <point x="440.0" y="210.0"/>
      <point x="464.0" y="190.0" type="curve" smooth="yes"/>
      <point x="488.0" y="170.0"/>
      <point x="501.0" y="10.0"/>
      <point x="463.0" y="1.0" type="curve" smooth="yes"/>
      <point x="425.0" y="-8.0"/>
      <point x="56.0" y="-3.0"/>
      <point x="32.0" y="4.0" type="curve" smooth="yes"/>
      <point x="-8.0" y="16.0"/>
      <point x="-6.0" y="154.0"/>
      <point x="36.0" y="218.0" type="curve" smooth="yes"/>
      <point x="78.0" y="282.0"/>
      <point x="274" y="460"/>
      <point x="283" y="562" type="curve" smooth="yes"/>
      <point x="290" y="645"/>
      <point x="144" y="590"/>
      <point x="69" y="499" type="curve" smooth="yes"/>
      <point x="42" y="466"/>
      <point x="2" y="569"/>
      <point x="28" y="635" type="curve" smooth="yes"/>
      <point x="69" y="738"/>
      <point x="222.0" y="755.0"/>
    </contour>
  </outline>
</glyph>
<glyph name="three" format="1">
  <advance width="532"/>
  <unicode hex="0033"/>
  <outline>
    <contour>
      <point x="16" y="747" type="curve"/>
      <point x="73" y="762"/>
      <point x="401" y="767"/>
      <point x="487" y="736" type="curve" smooth="yes"/>
      <point x="531" y="720"/>
      <point x="515" y="605"/>
      <point x="493" y="585" type="curve" smooth="yes"/>
      <point x="471" y="565"/>
      <point x="333" y="518"/>
      <point x="243" y="441" type="curve"/>
      <point x="402" y="441"/>
      <point x="532" y="373"/>
      <point x="538" y="255" type="curve" smooth="yes"/>
      <point x="542" y="178"/>
      <point x="500" y="2"/>
      <point x="263" y="2" type="curve" smooth="yes"/>
      <point x="26" y="2"/>
      <point x="17" y="15"/>
      <point x="11" y="62" type="curve" smooth="yes"/>
      <point x="7" y="92"/>
      <point x="29" y="215"/>
      <point x="80" y="210" type="curve" smooth="yes"/>
      <point x="131" y="205"/>
      <point x="393" y="159"/>
      <point x="400" y="240" type="curve" smooth="yes"/>
      <point x="407" y="321"/>
      <point x="190" y="281"/>
      <point x="162" y="286" type="curve" smooth="yes"/>
      <point x="136" y="291"/>
      <point x="77" y="333"/>
      <point x="82" y="377" type="curve" smooth="yes"/>
      <point x="87" y="421"/>
      <point x="230" y="555"/>
      <point x="241" y="568" type="curve" smooth="yes"/>
      <point x="252" y="581"/>
      <point x="51" y="563"/>
      <point x="41" y="584" type="curve" smooth="yes"/>
      <point x="10" y="650"/>
      <point x="3" y="745"/>
    </contour>
  </outline>
</glyph>
<glyph name="four" format="1">
  <advance width="576"/>
  <unicode hex="0034"/>
  <outline>
    <contour>
      <point x="338" y="716" type="curve" smooth="yes"/>
      <point x="303" y="819"/>
      <point x="358" y="875"/>
      <point x="461" y="841" type="curve" smooth="yes"/>
      <point x="468" y="838"/>
      <point x="379" y="660"/>
      <point x="280" y="652" type="curve" smooth="yes"/>
      <point x="242" y="649"/>
      <point x="155" y="470"/>
      <point x="127" y="374" type="curve"/>
      <point x="140" y="421"/>
      <point x="62" y="339"/>
      <point x="70" y="335" type="curve" smooth="yes"/>
      <point x="101" y="318"/>
      <point x="238" y="342"/>
      <point x="263" y="343" type="curve" smooth="yes"/>
      <point x="300" y="346"/>
      <point x="342" y="320"/>
      <point x="358" y="287" type="curve" smooth="yes"/>
      <point x="360" y="281"/>
      <point x="312" y="103"/>
      <point x="325" y="97" type="curve" smooth="yes"/>
      <point x="338" y="91"/>
      <point x="375" y="89"/>
      <point x="396" y="97" type="curve" smooth="yes"/>
      <point x="412" y="105"/>
      <point x="399" y="336"/>
      <point x="415" y="343" type="curve" smooth="yes"/>
      <point x="431" y="349"/>
      <point x="504" y="349"/>
      <point x="529" y="356" type="curve"/>
      <point x="519" y="353"/>
      <point x="530" y="317"/>
      <point x="534" y="316" type="curve"/>
      <point x="302" y="365"/>
      <point x="354" y="393"/>
      <point x="352" y="407" type="curve" smooth="yes"/>
      <point x="348" y="443"/>
      <point x="349" y="683"/>
    </contour>
    <contour>
      <point x="320" y="665" type="curve" smooth="yes"/>
      <point x="329" y="661"/>
      <point x="373" y="477"/>
      <point x="376" y="410" type="curve" smooth="yes"/>
      <point x="377" y="369"/>
      <point x="346" y="326"/>
      <point x="307" y="314" type="curve" smooth="yes"/>
      <point x="282" y="306"/>
      <point x="161" y="314"/>
      <point x="150" y="320" type="curve"/>
      <point x="230" y="498"/>
      <point x="310" y="670"/>
    </contour>
    <contour>
      <point x="522" y="780" type="line"/>
      <point x="535" y="743"/>
      <point x="540" y="473"/>
      <point x="546" y="433" type="curve" smooth="yes"/>
      <point x="546" y="431"/>
      <point x="720" y="477"/>
      <point x="574" y="508" type="curve"/>
      <point x="636" y="495"/>
      <point x="641" y="187"/>
      <point x="585" y="170" type="curve" smooth="yes"/>
      <point x="564" y="163"/>
      <point x="501" y="167"/>
      <point x="487" y="161" type="curve" smooth="yes"/>
      <point x="473" y="156"/>
      <point x="490" y="-75"/>
      <point x="474" y="-81" type="curve" smooth="yes"/>
      <point x="407" y="-111"/>
      <point x="286" y="-99"/>
      <point x="245" y="-81" type="curve" smooth="yes"/>
      <point x="222" y="-71"/>
      <point x="190" y="185"/>
      <point x="180" y="205" type="curve"/>
      <point x="275" y="149" type="line"/>
      <point x="234" y="146"/>
      <point x="21" y="138"/>
      <point x="-26" y="165" type="curve" smooth="yes"/>
      <point x="-52" y="179"/>
      <point x="-122" y="215"/>
      <point x="-61" y="428" type="curve" smooth="yes"/>
      <point x="-3" y="624"/>
      <point x="204" y="841"/>
      <point x="264" y="846" type="curve" smooth="yes"/>
      <point x="431" y="860"/>
      <point x="404" y="654"/>
      <point x="399" y="655" type="curve"/>
    </contour>
    <contour>
      <point x="232" y="491" type="curve" smooth="yes"/>
      <point x="222" y="496"/>
      <point x="142" y="324"/>
      <point x="238" y="494" type="curve"/>
      <point x="239" y="494"/>
      <point x="248" y="500"/>
      <point x="249" y="500" type="curve"/>
      <point x="180" y="404" type="line"/>
      <point x="181" y="401"/>
      <point x="235" y="489"/>
    </contour>
    <contour>
      <point x="430" y="748" type="curve"/>
      <point x="436" y="746"/>
      <point x="405" y="760"/>
      <point x="272" y="749" type="curve" smooth="yes"/>
      <point x="223" y="745"/>
      <point x="76" y="547"/>
      <point x="33" y="401" type="curve" smooth="yes"/>
      <point x="9" y="318"/>
      <point x="5" y="259"/>
      <point x="22" y="250" type="curve" smooth="yes"/>
      <point x="61" y="228"/>
      <point x="236" y="244"/>
      <point x="269" y="246" type="curve"/>
      <point x="275" y="233"/>
      <point x="267" y="16"/>
      <point x="285" y="8" type="curve" smooth="yes"/>
      <point x="312" y="-4"/>
      <point x="391" y="-11"/>
      <point x="435" y="8" type="curve" smooth="yes"/>
      <point x="451" y="15"/>
      <point x="436" y="246"/>
      <point x="451" y="252" type="curve" smooth="yes"/>
      <point x="466" y="258"/>
      <point x="534" y="256"/>
      <point x="557" y="263" type="curve" smooth="yes"/>
      <point x="580" y="270"/>
      <point x="583" y="406"/>
      <point x="554" y="412" type="curve" smooth="yes"/>
      <point x="511" y="421"/>
      <point x="450" y="412"/>
      <point x="449" y="420" type="curve" smooth="yes"/>
      <point x="444" y="458"/>
      <point x="442" y="713"/>
    </contour>
    <contour>
      <point x="276" y="578" type="curve" smooth="yes"/>
      <point x="282" y="575"/>
      <point x="277" y="439"/>
      <point x="278" y="407" type="curve"/>
      <point x="265" y="403"/>
      <point x="200" y="404"/>
      <point x="194" y="407" type="curve" smooth="yes"/>
      <point x="186" y="411"/>
      <point x="266" y="583"/>
    </contour>
  </outline>
</glyph>
<glyph name="five" format="1">
  <advance width="565"/>
  <unicode hex="0035"/>
  <outline>
    <contour>
      <point x="75" y="751" type="curve" smooth="yes"/>
      <point x="180" y="762"/>
      <point x="385" y="723"/>
      <point x="530" y="749" type="curve" smooth="yes"/>
      <point x="563" y="755"/>
      <point x="544" y="609"/>
      <point x="527" y="592" type="curve" smooth="yes"/>
      <point x="498" y="563"/>
      <point x="271" y="574"/>
      <point x="222" y="572" type="curve" smooth="yes"/>
      <point x="193" y="571"/>
      <point x="202" y="468"/>
      <point x="216" y="467" type="curve" smooth="yes"/>
      <point x="432" y="455"/>
      <point x="551" y="365"/>
      <point x="552" y="245" type="curve"/>
      <point x="549" y="151"/>
      <point x="498" y="0"/>
      <point x="337" y="1" type="curve" smooth="yes"/>
      <point x="114" y="2"/>
      <point x="78" y="29"/>
      <point x="64" y="40" type="curve" smooth="yes"/>
      <point x="27" y="68"/>
      <point x="38" y="209"/>
      <point x="77" y="205" type="curve" smooth="yes"/>
      <point x="116" y="201"/>
      <point x="393" y="95"/>
      <point x="381" y="241" type="curve" smooth="yes"/>
      <point x="374" y="322"/>
      <point x="111" y="297"/>
      <point x="69" y="316" type="curve" smooth="yes"/>
      <point x="33" y="332"/>
      <point x="36" y="747"/>
    </contour>
  </outline>
</glyph>
<glyph name="six" format="1">
  <advance width="500"/>
  <unicode hex="0036"/>
  <outline>
    <contour>
      <point x="176" y="747" type="curve"/>
      <point x="144" y="729"/>
      <point x="-20" y="377"/>
      <point x="-11" y="248" type="curve" smooth="yes"/>
      <point x="-2" y="119"/>
      <point x="56" y="-12"/>
      <point x="239" y="-13" type="curve" smooth="yes"/>
      <point x="422" y="-14"/>
      <point x="514" y="157"/>
      <point x="499" y="309" type="curve" smooth="yes"/>
      <point x="483" y="475"/>
      <point x="320" y="534"/>
      <point x="196" y="430" type="curve"/>
      <point x="251" y="507"/>
      <point x="298" y="736"/>
      <point x="296" y="746" type="curve" smooth="yes"/>
      <point x="292" y="768"/>
      <point x="224" y="772"/>
    </contour>
    <contour>
      <point x="240" y="338" type="curve" smooth="yes"/>
      <point x="305" y="346"/>
      <point x="324" y="325"/>
      <point x="335" y="247" type="curve" smooth="yes"/>
      <point x="346" y="168"/>
      <point x="321" y="123"/>
      <point x="261" y="117" type="curve" smooth="yes"/>
      <point x="200" y="111"/>
      <point x="151" y="155"/>
      <point x="149" y="208" type="curve" smooth="yes"/>
      <point x="144" y="269"/>
      <point x="162" y="330"/>
    </contour>
  </outline>
</glyph>
<glyph name="seven" format="1">
  <advance width="500"/>
  <unicode hex="0037"/>
  <outline>
    <contour>
      <point x="26" y="748" type="curve" smooth="yes"/>
      <point x="156" y="713"/>
      <point x="439" y="762"/>
      <point x="461" y="745" type="curve" smooth="yes"/>
      <point x="479" y="731"/>
      <point x="470" y="581"/>
      <point x="455" y="555" type="curve" smooth="yes"/>
      <point x="272" y="234"/>
      <point x="252" y="10"/>
      <point x="237" y="1" type="curve" smooth="yes"/>
      <point x="224" y="-7"/>
      <point x="66" y="-11"/>
      <point x="51" y="1" type="curve" smooth="yes"/>
      <point x="39" y="11"/>
      <point x="207" y="487"/>
      <point x="258" y="570" type="curve"/>
      <point x="239" y="569"/>
      <point x="51" y="551"/>
      <point x="18" y="574" type="curve" smooth="yes"/>
      <point x="3" y="585"/>
      <point x="3" y="754"/>
    </contour>
  </outline>
</glyph>
<glyph name="eight" format="1">
  <advance width="500"/>
  <unicode hex="0038"/>
  <outline>
    <contour>
      <point x="279" y="749" type="curve" smooth="yes"/>
      <point x="114" y="746"/>
      <point x="56" y="604"/>
      <point x="56" y="517" type="curve" smooth="yes"/>
      <point x="56" y="430"/>
      <point x="57" y="441"/>
      <point x="245" y="432" type="curve" smooth="yes"/>
      <point x="433" y="423"/>
      <point x="454" y="467"/>
      <point x="458" y="538" type="curve" smooth="yes"/>
      <point x="462" y="617"/>
      <point x="444" y="752"/>
    </contour>
    <contour>
      <point x="260" y="631" type="curve"/>
      <point x="317" y="632"/>
      <point x="325" y="580"/>
      <point x="321" y="556" type="curve"/>
      <point x="316" y="532"/>
      <point x="288" y="501"/>
      <point x="258" y="502" type="curve"/>
      <point x="219" y="503"/>
      <point x="186" y="538"/>
      <point x="186" y="562" type="curve"/>
      <point x="186" y="584"/>
      <point x="203" y="630"/>
    </contour>
    <contour>
      <point x="249" y="439" type="curve" smooth="yes"/>
      <point x="115" y="447"/>
      <point x="-2" y="287"/>
      <point x="-2" y="179" type="curve" smooth="yes"/>
      <point x="-2" y="83"/>
      <point x="104" y="-4"/>
      <point x="257" y="-6" type="curve" smooth="yes"/>
      <point x="410" y="-8"/>
      <point x="495" y="61"/>
      <point x="490" y="194" type="curve" smooth="yes"/>
      <point x="486" y="302"/>
      <point x="383" y="431"/>
    </contour>
    <contour>
      <point x="250" y="293" type="curve" smooth="yes"/>
      <point x="301" y="293"/>
      <point x="331" y="265"/>
      <point x="333" y="216" type="curve" smooth="yes"/>
      <point x="335" y="167"/>
      <point x="254" y="146"/>
      <point x="236" y="146" type="curve" smooth="yes"/>
      <point x="202" y="146"/>
      <point x="163" y="174"/>
      <point x="164" y="226" type="curve" smooth="yes"/>
      <point x="165" y="278"/>
      <point x="199" y="293"/>
    </contour>
  </outline>
</glyph>
<glyph name="nine" format="1">
  <advance width="547"/>
  <unicode hex="0039"/>
  <outline>
    <contour>
      <point x="280" y="5" type="curve"/>
      <point x="315" y="16"/>
      <point x="531" y="305"/>
      <point x="545" y="433" type="curve" smooth="yes"/>
      <point x="559" y="562"/>
      <point x="525" y="700"/>
      <point x="344" y="733" type="curve" smooth="yes"/>
      <point x="165" y="766"/>
      <point x="43" y="614"/>
      <point x="32" y="462" type="curve" smooth="yes"/>
      <point x="20" y="296"/>
      <point x="96" y="194"/>
      <point x="276" y="181" type="curve"/>
      <point x="209" y="115"/>
      <point x="161" y="36"/>
      <point x="163" y="26" type="curve" smooth="yes"/>
      <point x="164" y="4"/>
      <point x="230" y="-12"/>
    </contour>
    <contour>
      <point x="267" y="340" type="curve" smooth="yes"/>
      <point x="203" y="345"/>
      <point x="187" y="368"/>
      <point x="189" y="447" type="curve" smooth="yes"/>
      <point x="193" y="526"/>
      <point x="226" y="566"/>
      <point x="285" y="562" type="curve" smooth="yes"/>
      <point x="347" y="557"/>
      <point x="388" y="504"/>
      <point x="380" y="454" type="curve" smooth="yes"/>
      <point x="375" y="391"/>
      <point x="345" y="334"/>
    </contour>
  </outline>
</glyph>
<glyph name="question" format="1">
  <advance width="613"/>
  <unicode hex="003F"/>
  <outline>
    <contour>
      <point x="53" y="446"/>
      <point x="428.515589639" y="480.555322572"/>
      <point x="387" y="571" type="curve" smooth="yes"/>
      <point x="322" y="710"/>
      <point x="102" y="496"/>
      <point x="75" y="545" type="curve" smooth="yes"/>
      <point x="47" y="595"/>
      <point x="49" y="658"/>
      <point x="94" y="695" type="curve" smooth="yes"/>
      <point x="274" y="843"/>
      <point x="613" y="724"/>
      <point x="583" y="559" type="curve" smooth="yes"/>
      <point x="560" y="433"/>
      <point x="377" y="412"/>
      <point x="332" y="318" type="curve" smooth="yes"/>
      <point x="320" y="293"/>
      <point x="386" y="302"/>
      <point x="346" y="250" type="curve" smooth="yes"/>
      <point x="291" y="178"/>
      <point x="192" y="229"/>
      <point x="176" y="254" type="curve" smooth="yes"/>
    </contour>
    <contour>
      <point x="246" y="147" type="curve" smooth="yes"/>
      <point x="291" y="151"/>
      <point x="349" y="120"/>
      <point x="348" y="73" type="curve" smooth="yes"/>
      <point x="347" y="26"/>
      <point x="296" y="-6"/>
      <point x="258" y="-6" type="curve" smooth="yes"/>
      <point x="221" y="-7"/>
      <point x="179" y="19"/>
      <point x="183" y="69" type="curve" smooth="yes"/>
      <point x="188" y="120"/>
      <point x="201" y="144"/>
    </contour>
  </outline>
</glyph>
<glyph name="A" format="1">
  <advance width="568"/>
  <unicode hex="0041"/>
  <outline>
    <contour>
      <point x="79" y="2" type="move"/>
      <point x="79" y="186"/>
      <point x="284" y="745"/>
      <point x="284" y="745" type="curve"/>
      <point x="335" y="699"/>
      <point x="464" y="67"/>
      <point x="466" y="-4" type="curve" smooth="yes"/>
      <point x="467" y="-34"/>
    </contour>
    <contour>
      <point x="74" y="337" type="move"/>
      <point x="160" y="362"/>
      <point x="449" y="360"/>
      <point x="504" y="356" type="curve" smooth="yes"/>
      <point x="559" y="352"/>
    </contour>
  </outline>
</glyph>
<glyph name="B" format="1">
  <advance width="585"/>
  <unicode hex="0042"/>
  <outline>
    <contour>
      <point x="158" y="434" type="curve" smooth="yes"/>
      <point x="246" y="434"/>
      <point x="552" y="450"/>
      <point x="556" y="232" type="curve" smooth="yes"/>
      <point x="560" y="15"/>
      <point x="367" y="-4"/>
      <point x="186" y="-12" type="curve" smooth="yes"/>
      <point x="7" y="-20"/>
      <point x="70" y="434"/>
    </contour>
    <contour>
      <point x="372" y="247" type="curve" smooth="yes"/>
      <point x="338" y="306"/>
      <point x="219" y="292"/>
      <point x="211" y="279" type="curve" smooth="yes"/>
      <point x="203" y="264"/>
      <point x="197" y="191"/>
      <point x="216" y="156" type="curve" smooth="yes"/>
      <point x="235" y="122"/>
      <point x="284" y="140"/>
      <point x="320" y="148" type="curve" smooth="yes"/>
      <point x="356" y="157"/>
      <point x="394" y="210"/>
    </contour>
    <contour>
      <point x="158" y="757" type="curve" smooth="yes"/>
      <point x="246" y="757"/>
      <point x="552" y="772"/>
      <point x="556" y="565" type="curve" smooth="yes"/>
      <point x="560" y="358"/>
      <point x="365" y="329"/>
      <point x="186" y="333" type="curve" smooth="yes"/>
      <point x="7" y="337"/>
      <point x="70" y="757"/>
    </contour>
    <contour>
      <point x="343" y="556" type="curve" smooth="yes"/>
      <point x="309" y="612"/>
      <point x="190" y="598"/>
      <point x="182" y="585" type="curve" smooth="yes"/>
      <point x="174" y="572"/>
      <point x="168" y="502"/>
      <point x="187" y="469" type="curve" smooth="yes"/>
      <point x="206" y="436"/>
      <point x="255" y="453"/>
      <point x="291" y="461" type="curve" smooth="yes"/>
      <point x="327" y="469"/>
      <point x="365" y="520"/>
    </contour>
    <contour>
      <point x="222" y="-10" type="curve" smooth="yes"/>
      <point x="174" y="-15"/>
      <point x="77" y="-10"/>
      <point x="57" y="0" type="curve"/>
      <point x="13" y="38"/>
      <point x="51" y="683"/>
      <point x="65" y="718" type="curve"/>
      <point x="69" y="758"/>
      <point x="199" y="759"/>
      <point x="224" y="742" type="curve" smooth="yes"/>
      <point x="249" y="725"/>
      <point x="265" y="-6"/>
    </contour>
  </outline>
</glyph>
<glyph name="C" format="1">
  <advance width="618"/>
  <unicode hex="0043"/>
  <outline>
    <contour>
      <point x="546" y="607" type="move"/>
      <point x="358" y="757"/>
      <point x="113" y="592"/>
      <point x="112" y="377" type="curve" smooth="yes"/>
      <point x="111" y="120"/>
      <point x="362" y="21"/>
      <point x="547" y="116" type="curve" smooth="yes"/>
      <point x="724" y="207"/>
    </contour>
  </outline>
</glyph>
<glyph name="D" format="1">
  <advance width="559"/>
  <unicode hex="0044"/>
  <outline>
    <contour>
      <point x="55" y="751" type="curve" smooth="yes"/>
      <point x="86" y="764"/>
      <point x="171" y="757"/>
      <point x="201" y="750" type="curve" smooth="yes"/>
      <point x="231" y="743"/>
      <point x="226" y="13"/>
      <point x="191" y="0" type="curve" smooth="yes"/>
      <point x="156" y="-13"/>
      <point x="84" y="-20"/>
      <point x="43" y="-3" type="curve" smooth="yes"/>
      <point x="2" y="14"/>
      <point x="24" y="738"/>
    </contour>
    <contour>
      <point x="127" y="759" type="curve"/>
      <point x="361" y="750"/>
      <point x="510" y="606"/>
      <point x="531" y="379" type="curve"/>
      <point x="541" y="210"/>
      <point x="524" y="44"/>
      <point x="122" y="-14" type="curve"/>
      <point x="63" y="88"/>
      <point x="126" y="756"/>
    </contour>
    <contour>
      <point x="293" y="541" type="curve" smooth="yes"/>
      <point x="248" y="559"/>
      <point x="221" y="559"/>
      <point x="205" y="496" type="curve" smooth="yes"/>
      <point x="189" y="434"/>
      <point x="177" y="161"/>
      <point x="202" y="171" type="curve" smooth="yes"/>
      <point x="282" y="204"/>
      <point x="350" y="220"/>
      <point x="351" y="359" type="curve" smooth="yes"/>
      <point x="353" y="467"/>
      <point x="325" y="527"/>
    </contour>
  </outline>
</glyph>
<glyph name="E" format="1">
  <advance width="552"/>
  <unicode hex="0045"/>
  <outline>
    <contour>
      <point x="514" y="657" type="move" smooth="yes"/>
      <point x="474" y="668"/>
      <point x="254" y="684"/>
      <point x="120" y="677" type="curve"/>
      <point x="107" y="574"/>
      <point x="138" y="109"/>
      <point x="145" y="39" type="curve"/>
      <point x="236" y="41"/>
      <point x="486" y="59"/>
      <point x="533" y="67" type="curve" smooth="yes"/>
      <point x="580" y="75"/>
    </contour>
    <contour>
      <point x="158" y="394" type="move"/>
      <point x="261" y="389"/>
      <point x="394" y="397"/>
      <point x="394" y="397" type="curve"/>
    </contour>
  </outline>
</glyph>
<glyph name="F" format="1">
  <advance width="515"/>
  <unicode hex="0046"/>
  <outline>
    <contour>
      <point x="514" y="657" type="move" smooth="yes"/>
      <point x="474" y="668"/>
      <point x="254" y="684"/>
      <point x="120" y="677" type="curve"/>
      <point x="107" y="574"/>
      <point x="138" y="57"/>
      <point x="145" y="-13" type="curve"/>
      <point x="236" y="-11"/>
    </contour>
    <contour>
      <point x="158" y="394" type="move"/>
      <point x="261" y="389"/>
      <point x="394" y="397"/>
      <point x="394" y="397" type="curve"/>
    </contour>
  </outline>
</glyph>
<glyph name="G" format="1">
  <advance width="666"/>
  <unicode hex="0047"/>
  <outline>
    <contour>
      <point x="546" y="617" type="move"/>
      <point x="358" y="767"/>
      <point x="113" y="592"/>
      <point x="112" y="377" type="curve" smooth="yes"/>
      <point x="111" y="120"/>
      <point x="312" y="9"/>
      <point x="547" y="116" type="curve"/>
      <point x="557" y="277"/>
      <point x="555" y="360"/>
      <point x="364" y="341" type="curve"/>
    </contour>
  </outline>
</glyph>
<glyph name="H" format="1">
  <advance width="588"/>
  <unicode hex="0048"/>
  <outline>
    <contour>
      <point x="462" y="747" type="move"/>
      <point x="462" y="646"/>
      <point x="434" y="27"/>
      <point x="439" y="-2" type="curve" smooth="yes"/>
      <point x="446" y="-41"/>
    </contour>
    <contour>
      <point x="139" y="732" type="move"/>
      <point x="137" y="606"/>
      <point x="127" y="57"/>
      <point x="118" y="-7" type="curve" smooth="yes"/>
      <point x="107" y="-85"/>
    </contour>
    <contour>
      <point x="46" y="312" type="move"/>
      <point x="115" y="317"/>
      <point x="348" y="344"/>
      <point x="397" y="342" type="curve" smooth="yes"/>
      <point x="446" y="340"/>
    </contour>
  </outline>
</glyph>
<glyph name="I" format="1">
  <advance width="320"/>
  <unicode hex="0049"/>
  <outline>
    <contour>
      <point x="164" y="765" type="move"/>
      <point x="162" y="639"/>
      <point x="143" y="57"/>
      <point x="148" y="-7" type="curve" smooth="yes"/>
      <point x="153" y="-77"/>
    </contour>
  </outline>
</glyph>
<glyph name="J" format="1">
  <advance width="540"/>
  <unicode hex="004A"/>
  <outline>
    <contour>
      <point x="262" y="-10" type="curve" smooth="yes"/>
      <point x="455" y="-7"/>
      <point x="510" y="202"/>
      <point x="510" y="410" type="curve" smooth="yes"/>
      <point x="510" y="485"/>
      <point x="515" y="649"/>
      <point x="494" y="738" type="curve" smooth="yes"/>
      <point x="487" y="769"/>
      <point x="379" y="758"/>
      <point x="357" y="752" type="curve" smooth="yes"/>
      <point x="290" y="733"/>
      <point x="422" y="167"/>
      <point x="259" y="167" type="curve"/>
      <point x="192" y="169"/>
      <point x="226" y="265"/>
      <point x="191" y="327" type="curve"/>
      <point x="149" y="360"/>
      <point x="65" y="342"/>
      <point x="30" y="307" type="curve"/>
      <point x="19" y="216"/>
      <point x="35" y="-13"/>
    </contour>
  </outline>
</glyph>
<glyph name="K" format="1">
  <advance width="633"/>
  <unicode hex="004B"/>
  <outline>
    <contour>
      <point x="164" y="765" type="move"/>
      <point x="162" y="639"/>
      <point x="143" y="57"/>
      <point x="148" y="-7" type="curve" smooth="yes"/>
      <point x="153" y="-77"/>
    </contour>
    <contour>
      <point x="507" y="752" type="move"/>
      <point x="448" y="683"/>
      <point x="196" y="371"/>
      <point x="150" y="373" type="curve" smooth="yes"/>
      <point x="104" y="375"/>
    </contour>
    <contour>
      <point x="278" y="466" type="move"/>
      <point x="331" y="410"/>
      <point x="547" y="71"/>
      <point x="548" y="6" type="curve" smooth="yes"/>
      <point x="549" y="-59"/>
    </contour>
  </outline>
</glyph>
<glyph name="L" format="1">
  <advance width="500"/>
  <unicode hex="004C"/>
  <outline>
    <contour>
      <point x="201" y="3" type="curve" smooth="yes"/>
      <point x="157" y="-13"/>
      <point x="52" y="-36"/>
      <point x="42" y="21" type="curve"/>
      <point x="9" y="251"/>
      <point x="15" y="723"/>
      <point x="31" y="728" type="curve" smooth="yes"/>
      <point x="45" y="732"/>
      <point x="221" y="758"/>
      <point x="223" y="728" type="curve" smooth="yes"/>
      <point x="225" y="703"/>
      <point x="217" y="9"/>
    </contour>
    <contour>
      <point x="43" y="161" type="curve" smooth="yes"/>
      <point x="102" y="172"/>
      <point x="410" y="176"/>
      <point x="459" y="158" type="curve" smooth="yes"/>
      <point x="513" y="138"/>
      <point x="498" y="-1"/>
      <point x="462" y="-7" type="curve" smooth="yes"/>
      <point x="408" y="-16"/>
      <point x="69" y="-35"/>
      <point x="58" y="-2" type="curve" smooth="yes"/>
      <point x="46" y="33"/>
      <point x="17" y="156"/>
    </contour>
  </outline>
</glyph>
<glyph name="M" format="1">
  <advance width="744"/>
  <unicode hex="004D"/>
  <outline>
    <contour>
      <point x="701" y="3" type="curve" smooth="yes"/>
      <point x="660" y="-13"/>
      <point x="551" y="1"/>
      <point x="551" y="1" type="curve"/>
      <point x="551" y="1"/>
      <point x="551" y="1"/>
      <point x="551" y="1" type="curve"/>
      <point x="501" y="54"/>
      <point x="535" y="743"/>
      <point x="551" y="748" type="curve" smooth="yes"/>
      <point x="565" y="752"/>
      <point x="678" y="765"/>
      <point x="703" y="748" type="curve" smooth="yes"/>
      <point x="728" y="731"/>
      <point x="742" y="19"/>
    </contour>
    <contour>
      <point x="54" y="749" type="curve" smooth="yes"/>
      <point x="95" y="765"/>
      <point x="204" y="751"/>
      <point x="204" y="751" type="curve"/>
      <point x="204" y="751"/>
      <point x="204" y="751"/>
      <point x="204" y="751" type="curve"/>
      <point x="256" y="700"/>
      <point x="216" y="16"/>
      <point x="204" y="4" type="curve" smooth="yes"/>
      <point x="192" y="-8"/>
      <point x="77" y="-13"/>
      <point x="52" y="4" type="curve" smooth="yes"/>
      <point x="27" y="21"/>
      <point x="13" y="733"/>
    </contour>
    <contour>
      <point x="402" y="1" type="curve" smooth="yes"/>
      <point x="383" y="-1"/>
      <point x="379" y="1"/>
      <point x="352" y="1" type="curve" smooth="yes"/>
      <point x="286" y="1"/>
      <point x="162" y="543"/>
      <point x="162" y="589" type="curve" smooth="yes"/>
      <point x="162" y="635"/>
      <point x="204" y="751"/>
      <point x="204" y="751" type="curve" smooth="yes"/>
      <point x="290" y="734"/>
      <point x="354" y="385"/>
      <point x="374" y="254" type="curve"/>
      <point x="395" y="384"/>
      <point x="465" y="731"/>
      <point x="551" y="748" type="curve" smooth="yes"/>
      <point x="551" y="748"/>
      <point x="585" y="635"/>
      <point x="585" y="589" type="curve" smooth="yes"/>
      <point x="585" y="543"/>
      <point x="475" y="5"/>
    </contour>
  </outline>
</glyph>
<glyph name="N" format="1">
  <advance width="624"/>
  <unicode hex="004E"/>
  <outline>
    <contour>
      <point x="394" y="749" type="curve" smooth="yes"/>
      <point x="435" y="765"/>
      <point x="544" y="751"/>
      <point x="544" y="751" type="curve"/>
      <point x="544" y="751"/>
      <point x="544" y="751"/>
      <point x="544" y="751" type="curve"/>
      <point x="596" y="700"/>
      <point x="566" y="14"/>
      <point x="544" y="4" type="curve" smooth="yes"/>
      <point x="526" y="-4"/>
      <point x="424" y="-3"/>
      <point x="398" y="-1" type="curve" smooth="yes"/>
      <point x="370" y="1"/>
      <point x="353" y="733"/>
    </contour>
    <contour>
      <point x="54" y="749" type="curve" smooth="yes"/>
      <point x="95" y="765"/>
      <point x="204" y="751"/>
      <point x="204" y="751" type="curve"/>
      <point x="204" y="751"/>
      <point x="204" y="751"/>
      <point x="204" y="751" type="curve"/>
      <point x="256" y="700"/>
      <point x="216" y="16"/>
      <point x="204" y="4" type="curve" smooth="yes"/>
      <point x="192" y="-8"/>
      <point x="77" y="-13"/>
      <point x="52" y="4" type="curve" smooth="yes"/>
      <point x="27" y="21"/>
      <point x="13" y="733"/>
    </contour>
    <contour>
      <point x="398" y="-1" type="curve" smooth="yes"/>
      <point x="295" y="-1"/>
      <point x="162.0" y="539.64724457"/>
      <point x="162" y="589" type="curve" smooth="yes"/>
      <point x="162" y="635"/>
      <point x="204" y="751"/>
      <point x="204" y="751" type="curve" smooth="yes"/>
      <point x="290" y="734"/>
      <point x="545" y="-1"/>
    </contour>
  </outline>
</glyph>
<glyph name="O" format="1">
  <advance width="577"/>
  <unicode hex="004F"/>
  <outline>
    <contour>
      <point x="287" y="-10" type="curve" smooth="yes"/>
      <point x="480" y="-10"/>
      <point x="557" y="170"/>
      <point x="557" y="378" type="curve" smooth="yes"/>
      <point x="557" y="586"/>
      <point x="480" y="765"/>
      <point x="287" y="765" type="curve" smooth="yes"/>
      <point x="93" y="765"/>
      <point x="16" y="586"/>
      <point x="16" y="378" type="curve" smooth="yes"/>
      <point x="16" y="170"/>
      <point x="93" y="-10"/>
    </contour>
    <contour>
      <point x="288" y="209" type="curve" smooth="yes"/>
      <point x="216" y="215"/>
      <point x="193" y="283"/>
      <point x="202" y="383" type="curve" smooth="yes"/>
      <point x="211" y="484"/>
      <point x="244" y="570"/>
      <point x="316" y="564" type="curve" smooth="yes"/>
      <point x="387" y="558"/>
      <point x="409" y="467"/>
      <point x="401" y="367" type="curve" smooth="yes"/>
      <point x="391" y="266"/>
      <point x="359" y="203"/>
    </contour>
  </outline>
</glyph>
<glyph name="P" format="1">
  <advance width="573"/>
  <unicode hex="0050"/>
  <outline>
    <contour>
      <point x="372" y="539" type="curve" smooth="yes"/>
      <point x="338" y="607"/>
      <point x="219" y="590"/>
      <point x="211" y="574" type="curve" smooth="yes"/>
      <point x="203" y="558"/>
      <point x="197" y="473"/>
      <point x="216" y="433" type="curve" smooth="yes"/>
      <point x="235" y="393"/>
      <point x="284" y="414"/>
      <point x="320" y="424" type="curve" smooth="yes"/>
      <point x="356" y="434"/>
      <point x="394" y="495"/>
    </contour>
    <contour>
      <point x="222" y="3" type="curve" smooth="yes"/>
      <point x="174" y="-2"/>
      <point x="76" y="-8"/>
      <point x="57" y="10" type="curve"/>
      <point x="13" y="48"/>
      <point x="51" y="683"/>
      <point x="65" y="718" type="curve"/>
      <point x="69" y="758"/>
      <point x="199" y="759"/>
      <point x="224" y="742" type="curve" smooth="yes"/>
      <point x="249" y="725"/>
      <point x="265" y="7"/>
    </contour>
    <contour>
      <point x="158" y="754" type="curve" smooth="yes"/>
      <point x="246" y="754"/>
      <point x="552" y="772"/>
      <point x="556" y="521" type="curve" smooth="yes"/>
      <point x="560" y="270"/>
      <point x="365" y="234"/>
      <point x="186" y="239" type="curve" smooth="yes"/>
      <point x="7" y="244"/>
      <point x="70" y="754"/>
    </contour>
  </outline>
</glyph>
<glyph name="Q" format="1">
  <advance width="573"/>
  <unicode hex="0051"/>
  <outline>
    <contour>
      <point x="287" y="-10" type="curve" smooth="yes"/>
      <point x="480" y="-10"/>
      <point x="557" y="170"/>
      <point x="557" y="378" type="curve" smooth="yes"/>
      <point x="557" y="586"/>
      <point x="480" y="765"/>
      <point x="287" y="765" type="curve" smooth="yes"/>
      <point x="93" y="765"/>
      <point x="16" y="586"/>
      <point x="16" y="378" type="curve" smooth="yes"/>
      <point x="16" y="170"/>
      <point x="93" y="-10"/>
    </contour>
    <contour>
      <point x="288" y="209" type="curve" smooth="yes"/>
      <point x="216" y="215"/>
      <point x="193" y="283"/>
      <point x="202" y="383" type="curve" smooth="yes"/>
      <point x="211" y="484"/>
      <point x="244" y="570"/>
      <point x="316" y="564" type="curve" smooth="yes"/>
      <point x="387" y="558"/>
      <point x="409" y="467"/>
      <point x="401" y="367" type="curve" smooth="yes"/>
      <point x="391" y="266"/>
      <point x="359" y="203"/>
    </contour>
    <contour>
      <point x="471" y="102" type="curve" smooth="yes"/>
      <point x="449" y="99"/>
      <point x="328" y="61"/>
      <point x="319" y="31" type="curve" smooth="yes"/>
      <point x="310" y="1"/>
      <point x="382" y="-87"/>
      <point x="409" y="-94" type="curve" smooth="yes"/>
      <point x="436" y="-101"/>
      <point x="492" y="-78"/>
      <point x="541" y="-36" type="curve" smooth="yes"/>
      <point x="578" y="-4"/>
      <point x="493" y="105"/>
    </contour>
  </outline>
</glyph>
<glyph name="R" format="1">
  <advance width="626"/>
  <unicode hex="0052"/>
  <outline>
    <contour>
      <point x="222" y="3" type="curve" smooth="yes"/>
      <point x="174" y="-2"/>
      <point x="76" y="-8"/>
      <point x="57" y="10" type="curve"/>
      <point x="13" y="48"/>
      <point x="51" y="683"/>
      <point x="65" y="718" type="curve"/>
      <point x="69" y="758"/>
      <point x="199" y="759"/>
      <point x="224" y="742" type="curve" smooth="yes"/>
      <point x="249" y="725"/>
      <point x="265" y="7"/>
    </contour>
    <contour>
      <point x="158" y="754" type="curve" smooth="yes"/>
      <point x="246" y="754"/>
      <point x="552" y="772"/>
      <point x="556" y="521" type="curve" smooth="yes"/>
      <point x="560" y="270"/>
      <point x="365" y="234"/>
      <point x="186" y="239" type="curve" smooth="yes"/>
      <point x="7" y="244"/>
      <point x="70" y="754"/>
    </contour>
    <contour>
      <point x="457" y="322" type="curve" smooth="yes"/>
      <point x="492" y="317"/>
      <point x="669" y="7"/>
      <point x="586" y="-4" type="curve" smooth="yes"/>
      <point x="540" y="-10"/>
      <point x="457" y="-26"/>
      <point x="407" y="48" type="curve" smooth="yes"/>
      <point x="376" y="94"/>
      <point x="268" y="257"/>
      <point x="270" y="283" type="curve" smooth="yes"/>
      <point x="272" y="309"/>
      <point x="422" y="327"/>
    </contour>
    <contour>
      <point x="372" y="539" type="curve" smooth="yes"/>
      <point x="338" y="607"/>
      <point x="219" y="590"/>
      <point x="211" y="574" type="curve" smooth="yes"/>
      <point x="203" y="558"/>
      <point x="197" y="473"/>
      <point x="216" y="433" type="curve" smooth="yes"/>
      <point x="235" y="393"/>
      <point x="284" y="414"/>
      <point x="320" y="424" type="curve" smooth="yes"/>
      <point x="356" y="434"/>
      <point x="394" y="495"/>
    </contour>
  </outline>
</glyph>
<glyph name="S" format="1">
  <advance width="593"/>
  <unicode hex="0053"/>
  <outline>
    <contour>
      <point x="213.0" y="543.0" type="curve" smooth="yes"/>
      <point x="209" y="489"/>
      <point x="320" y="479"/>
      <point x="424" y="428" type="curve" smooth="yes"/>
      <point x="503" y="390"/>
      <point x="583" y="362"/>
      <point x="583.0" y="228.0" type="curve" smooth="yes"/>
      <point x="583" y="50"/>
      <point x="329" y="-22"/>
      <point x="94" y="0" type="curve" smooth="yes"/>
      <point x="-19" y="11"/>
      <point x="33.0" y="151.0"/>
      <point x="61.0" y="201.0" type="curve" smooth="yes"/>
      <point x="88.0" y="250.0"/>
      <point x="376" y="170"/>
      <point x="376" y="232" type="curve" smooth="yes"/>
      <point x="376" y="299"/>
      <point x="246" y="285"/>
      <point x="137" y="347" type="curve" smooth="yes"/>
      <point x="56" y="393"/>
      <point x="7" y="457"/>
      <point x="13" y="546" type="curve" smooth="yes"/>
      <point x="27" y="746"/>
      <point x="319" y="763"/>
      <point x="428" y="736" type="curve" smooth="yes"/>
      <point x="537" y="709"/>
      <point x="560" y="555"/>
      <point x="475" y="543" type="curve" smooth="yes"/>
      <point x="371" y="528"/>
      <point x="217" y="592"/>
    </contour>
  </outline>
</glyph>
<glyph name="T" format="1">
  <advance width="529"/>
  <unicode hex="0054"/>
  <outline>
    <contour>
      <point x="22" y="751" type="curve" smooth="yes"/>
      <point x="81" y="762"/>
      <point x="419" y="761"/>
      <point x="468" y="748" type="curve" smooth="yes"/>
      <point x="544" y="728"/>
      <point x="507" y="589"/>
      <point x="471" y="583" type="curve" smooth="yes"/>
      <point x="417" y="574"/>
      <point x="48" y="555"/>
      <point x="37" y="588" type="curve" smooth="yes"/>
      <point x="25" y="623"/>
      <point x="-4" y="746"/>
    </contour>
    <contour>
      <point x="340" y="3" type="curve" smooth="yes"/>
      <point x="296" y="-13"/>
      <point x="211" y="-26"/>
      <point x="181" y="1" type="curve"/>
      <point x="148" y="231"/>
      <point x="154" y="723"/>
      <point x="170" y="728" type="curve" smooth="yes"/>
      <point x="184" y="732"/>
      <point x="360" y="758"/>
      <point x="362" y="728" type="curve" smooth="yes"/>
      <point x="364" y="703"/>
      <point x="356" y="9"/>
    </contour>
  </outline>
</glyph>
<glyph name="U" format="1">
  <advance width="598"/>
  <unicode hex="0055"/>
  <outline>
    <contour>
      <point x="312" y="-10" type="curve" smooth="yes"/>
      <point x="505" y="-10"/>
      <point x="560" y="202"/>
      <point x="560" y="410" type="curve" smooth="yes"/>
      <point x="560" y="485"/>
      <point x="581" y="671"/>
      <point x="544" y="738" type="curve" smooth="yes"/>
      <point x="528" y="767"/>
      <point x="429" y="758"/>
      <point x="407" y="752" type="curve" smooth="yes"/>
      <point x="340" y="733"/>
      <point x="461" y="167"/>
      <point x="298" y="167" type="curve"/>
      <point x="169" y="173"/>
      <point x="234" y="729"/>
      <point x="198" y="741" type="curve" smooth="yes"/>
      <point x="150" y="757"/>
      <point x="78" y="761"/>
      <point x="58" y="742" type="curve" smooth="yes"/>
      <point x="16" y="702"/>
      <point x="41" y="466"/>
      <point x="41" y="378" type="curve" smooth="yes"/>
      <point x="41" y="170"/>
      <point x="118" y="-10"/>
    </contour>
  </outline>
</glyph>
<glyph name="V" format="1">
  <advance width="586"/>
  <unicode hex="0056"/>
  <outline>
    <contour>
      <point x="183" y="742" type="curve" smooth="yes"/>
      <point x="224" y="726"/>
      <point x="347" y="8"/>
      <point x="320" y="-3" type="curve" smooth="yes"/>
      <point x="295" y="-13"/>
      <point x="222" y="-5"/>
      <point x="208" y="-1" type="curve" smooth="yes"/>
      <point x="192" y="4"/>
      <point x="-17" y="691"/>
      <point x="33" y="744" type="curve"/>
      <point x="33" y="744"/>
      <point x="33" y="744"/>
      <point x="33" y="744" type="curve"/>
      <point x="33" y="744"/>
      <point x="142" y="758"/>
    </contour>
    <contour>
      <point x="410" y="742" type="curve" smooth="yes"/>
      <point x="451" y="758"/>
      <point x="560" y="744"/>
      <point x="560" y="744" type="curve"/>
      <point x="560" y="744"/>
      <point x="560" y="744"/>
      <point x="560" y="744" type="curve"/>
      <point x="610" y="691"/>
      <point x="376" y="2"/>
      <point x="360" y="-3" type="curve" smooth="yes"/>
      <point x="346" y="-7"/>
      <point x="263" y="-12"/>
      <point x="238" y="-3" type="curve" smooth="yes"/>
      <point x="213" y="6"/>
      <point x="369" y="726"/>
    </contour>
  </outline>
</glyph>
<glyph name="W" format="1">
  <advance width="769"/>
  <unicode hex="0057"/>
  <outline>
    <contour>
      <point x="94" y="3" type="curve" smooth="yes"/>
      <point x="53" y="19"/>
      <point x="-4" y="731"/>
      <point x="21" y="748" type="curve" smooth="yes"/>
      <point x="46" y="765"/>
      <point x="161" y="760"/>
      <point x="173" y="748" type="curve" smooth="yes"/>
      <point x="185" y="736"/>
      <point x="296" y="52"/>
      <point x="244" y="1" type="curve"/>
      <point x="244" y="1"/>
      <point x="135" y="-13"/>
    </contour>
    <contour>
      <point x="741" y="749" type="curve" smooth="yes"/>
      <point x="782" y="733"/>
      <point x="688" y="21"/>
      <point x="663" y="4" type="curve" smooth="yes"/>
      <point x="638" y="-13"/>
      <point x="525" y="0"/>
      <point x="511" y="4" type="curve" smooth="yes"/>
      <point x="495" y="9"/>
      <point x="541" y="698"/>
      <point x="591" y="751" type="curve"/>
      <point x="591" y="751"/>
      <point x="591" y="751"/>
      <point x="591" y="751" type="curve"/>
      <point x="591" y="751"/>
      <point x="700" y="765"/>
    </contour>
    <contour>
      <point x="392" y="651" type="curve" smooth="yes"/>
      <point x="465" y="647"/>
      <point x="585" y="209"/>
      <point x="585" y="163" type="curve" smooth="yes"/>
      <point x="585" y="117"/>
      <point x="511" y="4"/>
      <point x="511" y="4" type="curve" smooth="yes"/>
      <point x="425" y="21"/>
      <point x="395" y="278"/>
      <point x="374" y="408" type="curve"/>
      <point x="354" y="277"/>
      <point x="330" y="18"/>
      <point x="244" y="1" type="curve" smooth="yes"/>
      <point x="244" y="1"/>
      <point x="162" y="117"/>
      <point x="162" y="163" type="curve" smooth="yes"/>
      <point x="162" y="209"/>
      <point x="296" y="651"/>
      <point x="362" y="651" type="curve" smooth="yes"/>
      <point x="389" y="651"/>
      <point x="373" y="653"/>
    </contour>
  </outline>
</glyph>
<glyph name="X" format="1">
  <advance width="569"/>
  <unicode hex="0058"/>
  <outline>
    <contour>
      <point x="405" y="3" type="curve" smooth="yes"/>
      <point x="380" y="15"/>
      <point x="18" y="731"/>
      <point x="43" y="748" type="curve" smooth="yes"/>
      <point x="68" y="765"/>
      <point x="188" y="760"/>
      <point x="195" y="748" type="curve" smooth="yes"/>
      <point x="311" y="557"/>
      <point x="477" y="192"/>
      <point x="555" y="1" type="curve"/>
      <point x="555" y="1"/>
      <point x="555" y="1"/>
      <point x="555" y="1" type="curve"/>
      <point x="555" y="1"/>
      <point x="446" y="-17"/>
    </contour>
    <contour>
      <point x="168" y="3" type="curve" smooth="yes"/>
      <point x="127" y="-17"/>
      <point x="18" y="1"/>
      <point x="18" y="1" type="curve"/>
      <point x="18" y="1"/>
      <point x="18" y="1"/>
      <point x="18" y="1" type="curve"/>
      <point x="96" y="192"/>
      <point x="262" y="557"/>
      <point x="378" y="748" type="curve" smooth="yes"/>
      <point x="385" y="760"/>
      <point x="505" y="765"/>
      <point x="530" y="748" type="curve" smooth="yes"/>
      <point x="555" y="731"/>
      <point x="193" y="15"/>
    </contour>
  </outline>
</glyph>
<glyph name="Y" format="1">
  <advance width="610"/>
  <unicode hex="0059"/>
  <outline>
    <contour>
      <point x="385" y="13" type="curve" smooth="yes"/>
      <point x="341" y="-3"/>
      <point x="236" y="-26"/>
      <point x="226" y="31" type="curve"/>
      <point x="193" y="261"/>
      <point x="199" y="433"/>
      <point x="215" y="438" type="curve" smooth="yes"/>
      <point x="229" y="442"/>
      <point x="405" y="468"/>
      <point x="407" y="438" type="curve" smooth="yes"/>
      <point x="409" y="413"/>
      <point x="401" y="19"/>
    </contour>
    <contour>
      <point x="394" y="290" type="curve"/>
      <point x="375" y="262"/>
      <point x="336" y="274"/>
      <point x="300" y="295" type="curve"/>
      <point x="265" y="274"/>
      <point x="226" y="262"/>
      <point x="207" y="290" type="curve"/>
      <point x="79" y="486"/>
      <point x="22" y="731"/>
      <point x="36" y="743" type="curve" smooth="yes"/>
      <point x="46" y="751"/>
      <point x="198" y="768"/>
      <point x="211" y="742" type="curve" smooth="yes"/>
      <point x="218" y="730"/>
      <point x="262" y="521"/>
      <point x="301" y="419" type="curve"/>
      <point x="339" y="521"/>
      <point x="383" y="730"/>
      <point x="390" y="742" type="curve" smooth="yes"/>
      <point x="403" y="768"/>
      <point x="575" y="751"/>
      <point x="585" y="743" type="curve" smooth="yes"/>
      <point x="599" y="731"/>
      <point x="522" y="486"/>
    </contour>
  </outline>
</glyph>
<glyph name="Z" format="1">
  <advance width="554"/>
  <unicode hex="005A"/>
  <outline>
    <contour>
      <point x="168" y="100" type="curve" smooth="yes"/>
      <point x="120" y="95"/>
      <point x="45" y="59"/>
      <point x="26" y="77" type="curve"/>
      <point x="-18" y="115"/>
      <point x="333" y="655"/>
      <point x="347" y="690" type="curve"/>
      <point x="351" y="730"/>
      <point x="498" y="673"/>
      <point x="523" y="656" type="curve" smooth="yes"/>
      <point x="548" y="639"/>
      <point x="211" y="104"/>
    </contour>
    <contour>
      <point x="66" y="743" type="curve" smooth="yes"/>
      <point x="125" y="747"/>
      <point x="428" y="750"/>
      <point x="477" y="737" type="curve" smooth="yes"/>
      <point x="553" y="717"/>
      <point x="529" y="599"/>
      <point x="486" y="593" type="curve" smooth="yes"/>
      <point x="432" y="585"/>
      <point x="147" y="561"/>
      <point x="121" y="590" type="curve" smooth="yes"/>
      <point x="95" y="619"/>
      <point x="7" y="739"/>
    </contour>
    <contour>
      <point x="38" y="-1" type="curve" smooth="yes"/>
      <point x="0" y="0"/>
      <point x="18" y="122"/>
      <point x="44" y="151" type="curve" smooth="yes"/>
      <point x="70" y="180"/>
      <point x="449" y="166"/>
      <point x="503" y="158" type="curve" smooth="yes"/>
      <point x="546" y="152"/>
      <point x="572" y="-1"/>
      <point x="494" y="0" type="curve" smooth="yes"/>
      <point x="426" y="1"/>
      <point x="97" y="-3"/>
    </contour>
  </outline>
</glyph>
<glyph name="bracketleft" format="1">
  <advance width="356"/>
  <unicode hex="005B"/>
  <outline>
    <contour>
      <point x="84" y="834" type="curve" smooth="yes"/>
      <point x="43" y="819"/>
      <point x="53" y="-49"/>
      <point x="89" y="-85" type="curve"/>
      <point x="126" y="-106"/>
      <point x="263" y="-111"/>
      <point x="299" y="-72" type="curve"/>
      <point x="346" y="-27"/>
      <point x="197" y="-14"/>
      <point x="197" y="37" type="curve" smooth="yes"/>
      <point x="197" y="146"/>
      <point x="194" y="610"/>
      <point x="191" y="713" type="curve" smooth="yes"/>
      <point x="189" y="777"/>
      <point x="349" y="771"/>
      <point x="300" y="832" type="curve" smooth="yes"/>
      <point x="287" y="849"/>
      <point x="109" y="843"/>
    </contour>
  </outline>
</glyph>
<glyph name="bracketright" format="1">
  <advance width="343"/>
  <unicode hex="005D"/>
  <outline>
    <contour>
      <point x="266" y="834" type="curve" smooth="yes"/>
      <point x="241" y="843"/>
      <point x="63" y="849"/>
      <point x="50" y="832" type="curve" smooth="yes"/>
      <point x="1" y="771"/>
      <point x="161" y="777"/>
      <point x="159" y="713" type="curve" smooth="yes"/>
      <point x="156" y="610"/>
      <point x="153" y="146"/>
      <point x="153" y="37" type="curve" smooth="yes"/>
      <point x="153" y="-14"/>
      <point x="4" y="-27"/>
      <point x="51" y="-72" type="curve"/>
      <point x="87" y="-111"/>
      <point x="224" y="-106"/>
      <point x="261" y="-85" type="curve"/>
      <point x="297" y="-49"/>
      <point x="307" y="819"/>
    </contour>
  </outline>
</glyph>
<glyph name="a" format="1">
  <advance width="500"/>
  <unicode hex="0061"/>
  <outline>
    <contour>
      <point x="65.0" y="603.0" type="curve"/>
      <point x="104.0" y="615.0"/>
      <point x="303" y="633"/>
      <point x="400" y="561" type="curve" smooth="yes"/>
      <point x="477" y="503"/>
      <point x="461.0" y="371.0"/>
      <point x="459.0" y="265.0" type="curve" smooth="yes"/>
      <point x="456.0" y="87.0"/>
      <point x="478.0" y="34.0"/>
      <point x="488.0" y="-1.0" type="curve" smooth="yes"/>
      <point x="496.0" y="-28.0"/>
      <point x="335.0" y="-37.0"/>
      <point x="327.0" y="-18.0" type="curve" smooth="yes"/>
      <point x="319.0" y="1.0"/>
      <point x="319.0" y="5.0"/>
      <point x="319.0" y="5.0" type="curve"/>
      <point x="319.0" y="5.0"/>
      <point x="323" y="-11"/>
      <point x="227.0" y="-18.0" type="curve" smooth="yes"/>
      <point x="-12" y="-36"/>
      <point x="22" y="152"/>
      <point x="41" y="193" type="curve" smooth="yes"/>
      <point x="86" y="290"/>
      <point x="187" y="361"/>
      <point x="294" y="361" type="curve" smooth="yes"/>
      <point x="296" y="361"/>
      <point x="304" y="432"/>
      <point x="282" y="446" type="curve" smooth="yes"/>
      <point x="244" y="470"/>
      <point x="115" y="432"/>
      <point x="59.0" y="428.0" type="curve" smooth="yes"/>
      <point x="33" y="426"/>
      <point x="64.0" y="600.0"/>
    </contour>
    <contour>
      <point x="288" y="250" type="curve" smooth="yes"/>
      <point x="227" y="248"/>
      <point x="200" y="201"/>
      <point x="203" y="151" type="curve" smooth="yes"/>
      <point x="206" y="106"/>
      <point x="238" y="69"/>
      <point x="309" y="71" type="curve"/>
      <point x="320" y="90"/>
      <point x="288" y="250"/>
    </contour>
  </outline>
</glyph>
<glyph name="braceleft" format="1">
  <advance width="395"/>
  <unicode hex="007B"/>
  <outline>
    <contour>
      <point x="187" y="834" type="curve" smooth="yes"/>
      <point x="162" y="825"/>
      <point x="-10" y="699"/>
      <point x="146" y="363" type="curve"/>
      <point x="33" y="150"/>
      <point x="115" y="-71"/>
      <point x="129" y="-85" type="curve"/>
      <point x="166" y="-106"/>
      <point x="303" y="-111"/>
      <point x="339" y="-72" type="curve"/>
      <point x="386" y="-27"/>
      <point x="244" y="-37"/>
      <point x="239" y="108" type="curve" smooth="yes"/>
      <point x="238" y="150"/>
      <point x="248" y="306"/>
      <point x="212" y="324" type="curve" smooth="yes"/>
      <point x="198" y="331"/>
      <point x="198" y="381"/>
      <point x="209" y="388" type="curve" smooth="yes"/>
      <point x="243" y="410"/>
      <point x="228" y="548"/>
      <point x="230" y="596" type="curve" smooth="yes"/>
      <point x="236" y="760"/>
      <point x="389" y="771"/>
      <point x="340" y="832" type="curve" smooth="yes"/>
      <point x="327" y="849"/>
      <point x="212" y="843"/>
    </contour>
    <contour>
      <point x="48" y="392"/>
      <point x="47" y="315"/>
      <point x="57" y="313" type="curve" smooth="yes"/>
      <point x="97" y="305"/>
      <point x="165" y="270"/>
      <point x="156" y="286" type="curve" smooth="yes"/>
      <point x="143" y="309"/>
      <point x="178" y="482"/>
      <point x="159" y="444" type="curve" smooth="yes"/>
      <point x="150" y="426"/>
      <point x="78" y="409"/>
      <point x="55" y="396" type="curve" smooth="yes"/>
    </contour>
  </outline>
</glyph>
<glyph name="braceright" format="1">
  <advance width="391"/>
  <unicode hex="007D"/>
  <outline>
    <contour>
      <point x="362" y="315"/>
      <point x="361" y="392"/>
      <point x="354" y="396" type="curve" smooth="yes"/>
      <point x="331" y="409"/>
      <point x="259" y="426"/>
      <point x="250" y="444" type="curve" smooth="yes"/>
      <point x="231" y="482"/>
      <point x="266" y="309"/>
      <point x="253" y="286" type="curve" smooth="yes"/>
      <point x="244" y="270"/>
      <point x="312" y="305"/>
      <point x="352" y="313" type="curve" smooth="yes"/>
    </contour>
    <contour>
      <point x="222" y="834" type="curve" smooth="yes"/>
      <point x="197" y="843"/>
      <point x="82" y="849"/>
      <point x="69" y="832" type="curve" smooth="yes"/>
      <point x="20" y="771"/>
      <point x="173" y="760"/>
      <point x="179" y="596" type="curve" smooth="yes"/>
      <point x="181" y="548"/>
      <point x="166" y="410"/>
      <point x="200" y="388" type="curve" smooth="yes"/>
      <point x="211" y="381"/>
      <point x="211" y="331"/>
      <point x="197" y="324" type="curve" smooth="yes"/>
      <point x="161" y="306"/>
      <point x="171" y="150"/>
      <point x="170" y="108" type="curve" smooth="yes"/>
      <point x="165" y="-37"/>
      <point x="23" y="-27"/>
      <point x="70" y="-72" type="curve"/>
      <point x="106" y="-111"/>
      <point x="243" y="-106"/>
      <point x="280" y="-85" type="curve"/>
      <point x="294" y="-71"/>
      <point x="376" y="150"/>
      <point x="263" y="363" type="curve"/>
      <point x="419" y="699"/>
      <point x="247" y="825"/>
    </contour>
  </outline>
</glyph>
<glyph name="cent" format="1">
  <advance width="822"/>
  <unicode hex="00A2"/>
  <outline>
    <contour>
      <point x="199" y="208" type="curve"/>
      <point x="222" y="217"/>
      <point x="371" y="429"/>
      <point x="377" y="523" type="curve" smooth="yes"/>
      <point x="391" y="620"/>
      <point x="368" y="720"/>
      <point x="241" y="744" type="curve" smooth="yes"/>
      <point x="120" y="770"/>
      <point x="36" y="658"/>
      <point x="30" y="545" type="curve" smooth="yes"/>
      <point x="22" y="423"/>
      <point x="74" y="347"/>
      <point x="197" y="337" type="curve"/>
      <point x="151" y="288"/>
      <point x="118" y="231"/>
      <point x="119" y="223" type="curve" smooth="yes"/>
      <point x="120" y="208"/>
      <point x="166" y="195"/>
    </contour>
    <contour>
      <point x="189" y="456" type="curve" smooth="yes"/>
      <point x="146" y="458"/>
      <point x="134" y="478"/>
      <point x="135" y="533" type="curve" smooth="yes"/>
      <point x="140" y="593"/>
      <point x="163" y="622"/>
      <point x="202" y="620" type="curve" smooth="yes"/>
      <point x="244" y="614"/>
      <point x="272" y="575"/>
      <point x="267" y="539" type="curve" smooth="yes"/>
      <point x="263" y="489"/>
      <point x="241" y="453"/>
    </contour>
    <contour>
      <point x="571" y="456" type="curve" smooth="yes"/>
      <point x="527" y="458"/>
      <point x="516" y="478"/>
      <point x="517" y="533" type="curve" smooth="yes"/>
      <point x="521" y="593"/>
      <point x="544" y="622"/>
      <point x="584" y="620" type="curve" smooth="yes"/>
      <point x="625" y="614"/>
      <point x="653" y="575"/>
      <point x="648" y="539" type="curve" smooth="yes"/>
      <point x="645" y="489"/>
      <point x="624" y="453"/>
    </contour>
    <contour>
      <point x="581" y="208" type="curve"/>
      <point x="604" y="217"/>
      <point x="750" y="429"/>
      <point x="760" y="523" type="curve" smooth="yes"/>
      <point x="770" y="620"/>
      <point x="747" y="720"/>
      <point x="624" y="744" type="curve" smooth="yes"/>
      <point x="501" y="770"/>
      <point x="419" y="658"/>
      <point x="414" y="545" type="curve" smooth="yes"/>
      <point x="401" y="423"/>
      <point x="454" y="347"/>
      <point x="578" y="337" type="curve"/>
      <point x="531" y="288"/>
      <point x="499" y="231"/>
      <point x="500" y="223" type="curve" smooth="yes"/>
      <point x="501" y="208"/>
      <point x="547" y="195"/>
    </contour>
    <contour>
      <point x="46" y="140" type="curve" smooth="yes"/>
      <point x="57" y="181"/>
      <point x="724" y="206"/>
      <point x="730" y="160" type="curve" smooth="yes"/>
      <point x="736" y="114"/>
      <point x="735" y="113"/>
      <point x="737" y="87" type="curve" smooth="yes"/>
      <point x="739" y="61"/>
      <point x="46" y="49"/>
      <point x="42" y="87" type="curve" smooth="yes"/>
      <point x="39" y="115"/>
      <point x="43" y="129"/>
    </contour>
  </outline>
</glyph>
<glyph name="multiply" format="1">
  <advance width="500"/>
  <unicode hex="00D7"/>
  <outline>
    <contour>
      <point x="38" y="200" type="curve" smooth="yes"/>
      <point x="36" y="220"/>
      <point x="353" y="517"/>
      <point x="365" y="523" type="curve" smooth="yes"/>
      <point x="378" y="528"/>
      <point x="455" y="460"/>
      <point x="445" y="430" type="curve" smooth="yes"/>
      <point x="436" y="399"/>
      <point x="137" y="107"/>
      <point x="118" y="118" type="curve" smooth="yes"/>
      <point x="100" y="130"/>
      <point x="40" y="181"/>
    </contour>
    <contour>
      <point x="46" y="439" type="curve"/>
      <point x="60" y="464"/>
      <point x="110" y="513"/>
      <point x="133" y="525" type="curve"/>
      <point x="160" y="509"/>
      <point x="443" y="226"/>
      <point x="457" y="197" type="curve"/>
      <point x="448" y="177"/>
      <point x="389" y="114"/>
      <point x="370" y="105" type="curve"/>
      <point x="331" y="126"/>
      <point x="48" y="416"/>
    </contour>
  </outline>
</glyph>
<glyph name="Oslash" format="1">
  <advance width="663"/>
  <unicode hex="00D8"/>
  <outline>
    <contour>
      <point x="342" y="741" type="curve" smooth="yes"/>
      <point x="544" y="746"/>
      <point x="651" y="536"/>
      <point x="649" y="369" type="curve" smooth="yes"/>
      <point x="647" y="202"/>
      <point x="541" y="42"/>
      <point x="347" y="35" type="curve" smooth="yes"/>
      <point x="153" y="28"/>
      <point x="44" y="195"/>
      <point x="47" y="369" type="curve" smooth="yes"/>
      <point x="50" y="543"/>
      <point x="140" y="736"/>
    </contour>
    <contour>
      <point x="347" y="634" type="curve" smooth="yes"/>
      <point x="217" y="633"/>
      <point x="152" y="482"/>
      <point x="156" y="374" type="curve" smooth="yes"/>
      <point x="160" y="266"/>
      <point x="242" y="126"/>
      <point x="348" y="131" type="curve" smooth="yes"/>
      <point x="454" y="136"/>
      <point x="543" y="217"/>
      <point x="538" y="360" type="curve" smooth="yes"/>
      <point x="533" y="503"/>
      <point x="477" y="635"/>
    </contour>
    <contour>
      <point x="569" y="740" type="curve" smooth="yes"/>
      <point x="584" y="738"/>
      <point x="591" y="727"/>
      <point x="597" y="712" type="curve" smooth="yes"/>
      <point x="603" y="697"/>
      <point x="157" y="12"/>
      <point x="140" y="14" type="curve" smooth="yes"/>
      <point x="122" y="16"/>
      <point x="107" y="23"/>
      <point x="102" y="38" type="curve" smooth="yes"/>
      <point x="97" y="53"/>
      <point x="554" y="742"/>
    </contour>
  </outline>
</glyph>
<glyph name="divide" format="1">
  <advance width="500"/>
  <unicode hex="00F7"/>
  <outline>
    <contour>
      <point x="17" y="382" type="curve" smooth="yes"/>
      <point x="29" y="397"/>
      <point x="464" y="383"/>
      <point x="476" y="379" type="curve" smooth="yes"/>
      <point x="489" y="373"/>
      <point x="495" y="271"/>
      <point x="467" y="256" type="curve" smooth="yes"/>
      <point x="439" y="241"/>
      <point x="21" y="246"/>
      <point x="15" y="267" type="curve" smooth="yes"/>
      <point x="11" y="288"/>
      <point x="5" y="367"/>
    </contour>
    <contour>
      <point x="249" y="571" type="curve" smooth="yes"/>
      <point x="293" y="575"/>
      <point x="348" y="546"/>
      <point x="346" y="503" type="curve" smooth="yes"/>
      <point x="344" y="460"/>
      <point x="312" y="418"/>
      <point x="264" y="416" type="curve" smooth="yes"/>
      <point x="216" y="414"/>
      <point x="181" y="454"/>
      <point x="184" y="497" type="curve" smooth="yes"/>
      <point x="187" y="540"/>
      <point x="205" y="567"/>
    </contour>
    <contour>
      <point x="253" y="213" type="curve" smooth="yes"/>
      <point x="206" y="215"/>
      <point x="171" y="182"/>
      <point x="172" y="140" type="curve" smooth="yes"/>
      <point x="173" y="98"/>
      <point x="202" y="51"/>
      <point x="243" y="53" type="curve" smooth="yes"/>
      <point x="284" y="55"/>
      <point x="324" y="86"/>
      <point x="324" y="138" type="curve" smooth="yes"/>
      <point x="324" y="190"/>
      <point x="300" y="211"/>
    </contour>
  </outline>
</glyph>
<glyph name="quoteright" format="1">
  <advance width="254"/>
  <unicode hex="2019"/>
  <outline>
    <contour>
      <point x="126" y="720" type="curve" smooth="yes"/>
      <point x="182" y="714"/>
      <point x="236" y="667"/>
      <point x="233" y="608" type="curve" smooth="yes"/>
      <point x="228" y="518"/>
      <point x="104" y="436"/>
      <point x="57" y="443" type="curve" smooth="yes"/>
      <point x="-10" y="454"/>
      <point x="86" y="480"/>
      <point x="28" y="577" type="curve" smooth="yes"/>
      <point x="-19" y="655"/>
      <point x="71" y="726"/>
    </contour>
  </outline>
</glyph>
<glyph name="elipsis" format="1">
  <advance width="860"/>
  <unicode hex="2026"/>
  <outline>
    <contour>
      <point x="560" y="147" type="curve" smooth="yes"/>
      <point x="605" y="151"/>
      <point x="663" y="120"/>
      <point x="662" y="73" type="curve" smooth="yes"/>
      <point x="661" y="26"/>
      <point x="610" y="-6"/>
      <point x="572" y="-6" type="curve" smooth="yes"/>
      <point x="535" y="-7"/>
      <point x="493" y="19"/>
      <point x="497" y="69" type="curve" smooth="yes"/>
      <point x="502" y="120"/>
      <point x="515" y="144"/>
    </contour>
    <contour>
      <point x="314" y="147" type="curve" smooth="yes"/>
      <point x="359" y="151"/>
      <point x="417" y="120"/>
      <point x="416" y="73" type="curve" smooth="yes"/>
      <point x="415" y="26"/>
      <point x="364" y="-6"/>
      <point x="326" y="-6" type="curve" smooth="yes"/>
      <point x="289" y="-7"/>
      <point x="247" y="19"/>
      <point x="251" y="69" type="curve" smooth="yes"/>
      <point x="256" y="120"/>
      <point x="269" y="144"/>
    </contour>
    <contour>
      <point x="72" y="147" type="curve" smooth="yes"/>
      <point x="117" y="151"/>
      <point x="175" y="120"/>
      <point x="174" y="73" type="curve" smooth="yes"/>
      <point x="173" y="26"/>
      <point x="122" y="-6"/>
      <point x="84" y="-6" type="curve" smooth="yes"/>
      <point x="47" y="-7"/>
      <point x="5" y="19"/>
      <point x="9" y="69" type="curve" smooth="yes"/>
      <point x="14" y="120"/>
      <point x="27" y="144"/>
    </contour>
  </outline>
</glyph>
<glyph name="element" format="1">
  <advance width="664"/>
  <unicode hex="2208"/>
  <outline>
    <contour>
      <point x="542" y="636" type="curve"/>
      <point x="489" y="645"/>
      <point x="302" y="659"/>
      <point x="205" y="606" type="curve" smooth="yes"/>
      <point x="104" y="550"/>
      <point x="75" y="424"/>
      <point x="77" y="357" type="curve" smooth="yes"/>
      <point x="78" y="283"/>
      <point x="101" y="173"/>
      <point x="213" y="117" type="curve" smooth="yes"/>
      <point x="295" y="74"/>
      <point x="481" y="71"/>
      <point x="541" y="75" type="curve"/>
      <point x="561" y="78"/>
      <point x="574" y="190"/>
      <point x="541" y="194" type="curve"/>
      <point x="495" y="206"/>
      <point x="360" y="181"/>
      <point x="277" y="224" type="curve" smooth="yes"/>
      <point x="240" y="242"/>
      <point x="203" y="311"/>
      <point x="202" y="361" type="curve" smooth="yes"/>
      <point x="202" y="408"/>
      <point x="224" y="487"/>
      <point x="285" y="514" type="curve" smooth="yes"/>
      <point x="363" y="549"/>
      <point x="492" y="524"/>
      <point x="542" y="524" type="curve" smooth="yes"/>
      <point x="577" y="524"/>
      <point x="576" y="622"/>
    </contour>
    <contour>
      <point x="156" y="410" type="curve" smooth="yes"/>
      <point x="141" y="406"/>
      <point x="138" y="310"/>
      <point x="157" y="292" type="curve" smooth="yes"/>
      <point x="176" y="274"/>
      <point x="523" y="288"/>
      <point x="548" y="287" type="curve" smooth="yes"/>
      <point x="574" y="286"/>
      <point x="564" y="391"/>
      <point x="549" y="409" type="curve" smooth="yes"/>
      <point x="534" y="426"/>
      <point x="170" y="413"/>
    </contour>
  </outline>
</glyph>
<glyph name="notelement" format="1">
  <advance width="687"/>
  <unicode hex="2209"/>
  <outline>
    <contour>
      <point x="95" y="204" type="line"/>
      <point x="191" y="207"/>
      <point x="288" y="216"/>
      <point x="384" y="216" type="curve" smooth="yes"/>
      <point x="417" y="216"/>
      <point x="447" y="246"/>
      <point x="456" y="276" type="curve" smooth="yes"/>
      <point x="461" y="289"/>
      <point x="462" y="305"/>
      <point x="455" y="318" type="curve" smooth="yes"/>
      <point x="448" y="330"/>
      <point x="436" y="336"/>
      <point x="422" y="336" type="curve" smooth="yes"/>
      <point x="326" y="336"/>
      <point x="230" y="327"/>
      <point x="134" y="324" type="curve" smooth="yes"/>
      <point x="100" y="323"/>
      <point x="71" y="295"/>
      <point x="61" y="264" type="curve" smooth="yes"/>
      <point x="57" y="251"/>
      <point x="56" y="235"/>
      <point x="63" y="222" type="curve" smooth="yes"/>
      <point x="69" y="211"/>
      <point x="82" y="204"/>
      <point x="95" y="204" type="curve"/>
    </contour>
    <contour>
      <point x="427" y="655" type="line"/>
      <point x="420" y="636"/>
      <point x="414" y="618"/>
      <point x="408" y="599" type="curve" smooth="yes"/>
      <point x="392" y="552"/>
      <point x="377" y="505"/>
      <point x="361" y="458" type="curve" smooth="yes"/>
      <point x="341" y="397"/>
      <point x="321" y="337"/>
      <point x="301" y="276" type="curve" smooth="yes"/>
      <point x="281" y="215"/>
      <point x="260" y="154"/>
      <point x="240" y="93" type="curve" smooth="yes"/>
      <point x="225" y="46"/>
      <point x="209" y="-1"/>
      <point x="193" y="-48" type="curve" smooth="yes"/>
      <point x="187" y="-67"/>
      <point x="181" y="-86"/>
      <point x="175" y="-105" type="curve"/>
      <point x="175" y="-105"/>
      <point x="175" y="-105"/>
      <point x="175" y="-105" type="curve"/>
      <point x="171" y="-115"/>
      <point x="171" y="-127"/>
      <point x="176" y="-136" type="curve" smooth="yes"/>
      <point x="181" y="-145"/>
      <point x="190" y="-149"/>
      <point x="200" y="-149" type="curve" smooth="yes"/>
      <point x="225" y="-149"/>
      <point x="246" y="-127"/>
      <point x="253" y="-105" type="curve" smooth="yes"/>
      <point x="260" y="-86"/>
      <point x="266" y="-68"/>
      <point x="272" y="-49" type="curve" smooth="yes"/>
      <point x="288" y="-2"/>
      <point x="303" y="45"/>
      <point x="319" y="92" type="curve" smooth="yes"/>
      <point x="339" y="153"/>
      <point x="359" y="214"/>
      <point x="379" y="274" type="curve" smooth="yes"/>
      <point x="399" y="335"/>
      <point x="420" y="396"/>
      <point x="440" y="457" type="curve" smooth="yes"/>
      <point x="455" y="504"/>
      <point x="471" y="551"/>
      <point x="487" y="598" type="curve" smooth="yes"/>
      <point x="493" y="617"/>
      <point x="499" y="636"/>
      <point x="505" y="655" type="curve"/>
      <point x="505" y="655"/>
      <point x="505" y="655"/>
      <point x="505" y="655" type="curve"/>
      <point x="509" y="665"/>
      <point x="509" y="677"/>
      <point x="504" y="686" type="curve" smooth="yes"/>
      <point x="499" y="695"/>
      <point x="490" y="699"/>
      <point x="480" y="699" type="curve" smooth="yes"/>
      <point x="455" y="699"/>
      <point x="434" y="677"/>
      <point x="427" y="655" type="curve"/>
    </contour>
    <contour>
      <point x="578" y="532" type="line"/>
      <point x="508" y="549"/>
      <point x="434" y="561"/>
      <point x="361" y="553" type="curve" smooth="yes"/>
      <point x="330" y="549"/>
      <point x="300" y="544"/>
      <point x="271" y="533" type="curve" smooth="yes"/>
      <point x="255" y="528"/>
      <point x="240" y="522"/>
      <point x="225" y="514" type="curve" smooth="yes"/>
      <point x="210" y="506"/>
      <point x="197" y="497"/>
      <point x="183" y="488" type="curve" smooth="yes"/>
      <point x="162" y="473"/>
      <point x="142" y="454"/>
      <point x="126" y="433" type="curve" smooth="yes"/>
      <point x="116" y="421"/>
      <point x="107" y="408"/>
      <point x="99" y="395" type="curve" smooth="yes"/>
      <point x="92" y="382"/>
      <point x="86" y="368"/>
      <point x="80" y="354" type="curve" smooth="yes"/>
      <point x="61" y="310"/>
      <point x="56" y="261"/>
      <point x="61" y="214" type="curve" smooth="yes"/>
      <point x="62" y="195"/>
      <point x="66" y="176"/>
      <point x="72" y="158" type="curve" smooth="yes"/>
      <point x="80" y="135"/>
      <point x="88" y="114"/>
      <point x="101" y="94" type="curve" smooth="yes"/>
      <point x="113" y="75"/>
      <point x="128" y="56"/>
      <point x="145" y="40" type="curve" smooth="yes"/>
      <point x="162" y="24"/>
      <point x="182" y="11"/>
      <point x="203" y="0" type="curve" smooth="yes"/>
      <point x="221" y="-10"/>
      <point x="241" y="-17"/>
      <point x="261" y="-21" type="curve" smooth="yes"/>
      <point x="288" y="-26"/>
      <point x="315" y="-29"/>
      <point x="342" y="-27" type="curve" smooth="yes"/>
      <point x="409" y="-23"/>
      <point x="474" y="0"/>
      <point x="533" y="32" type="curve" smooth="yes"/>
      <point x="549" y="40"/>
      <point x="565" y="50"/>
      <point x="580" y="60" type="curve" smooth="yes"/>
      <point x="584" y="63"/>
      <point x="589" y="66"/>
      <point x="594" y="69" type="curve"/>
      <point x="603" y="77"/>
      <point x="611" y="86"/>
      <point x="617" y="96" type="curve" smooth="yes"/>
      <point x="624" y="110"/>
      <point x="629" y="126"/>
      <point x="626" y="141" type="curve" smooth="yes"/>
      <point x="624" y="154"/>
      <point x="615" y="166"/>
      <point x="603" y="170" type="curve" smooth="yes"/>
      <point x="590" y="174"/>
      <point x="572" y="172"/>
      <point x="561" y="164" type="curve" smooth="yes"/>
      <point x="529" y="143"/>
      <point x="495" y="124"/>
      <point x="459" y="110" type="curve"/>
      <point x="464" y="112"/>
      <point x="469" y="114"/>
      <point x="473" y="116" type="curve"/>
      <point x="446" y="105"/>
      <point x="417" y="97"/>
      <point x="388" y="93" type="curve"/>
      <point x="393" y="94"/>
      <point x="397" y="94"/>
      <point x="402" y="95" type="curve"/>
      <point x="376" y="91"/>
      <point x="350" y="91"/>
      <point x="324" y="95" type="curve"/>
      <point x="329" y="94"/>
      <point x="333" y="94"/>
      <point x="337" y="93" type="curve"/>
      <point x="311" y="97"/>
      <point x="286" y="106"/>
      <point x="263" y="118" type="curve"/>
      <point x="267" y="116"/>
      <point x="271" y="114"/>
      <point x="274" y="112" type="curve"/>
      <point x="250" y="126"/>
      <point x="229" y="144"/>
      <point x="212" y="165" type="curve"/>
      <point x="214" y="162"/>
      <point x="217" y="158"/>
      <point x="220" y="155" type="curve"/>
      <point x="202" y="176"/>
      <point x="189" y="201"/>
      <point x="180" y="227" type="curve"/>
      <point x="181" y="223"/>
      <point x="183" y="219"/>
      <point x="184" y="215" type="curve"/>
      <point x="177" y="237"/>
      <point x="172" y="261"/>
      <point x="171" y="285" type="curve"/>
      <point x="171" y="280"/>
      <point x="172" y="275"/>
      <point x="172" y="270" type="curve"/>
      <point x="171" y="289"/>
      <point x="173" y="308"/>
      <point x="176" y="327" type="curve"/>
      <point x="175" y="322"/>
      <point x="174" y="317"/>
      <point x="173" y="311" type="curve"/>
      <point x="176" y="326"/>
      <point x="181" y="341"/>
      <point x="187" y="355" type="curve"/>
      <point x="185" y="350"/>
      <point x="182" y="345"/>
      <point x="180" y="340" type="curve"/>
      <point x="186" y="352"/>
      <point x="192" y="364"/>
      <point x="200" y="376" type="curve"/>
      <point x="197" y="371"/>
      <point x="193" y="366"/>
      <point x="190" y="361" type="curve"/>
      <point x="198" y="372"/>
      <point x="206" y="382"/>
      <point x="215" y="391" type="curve"/>
      <point x="211" y="387"/>
      <point x="207" y="383"/>
      <point x="203" y="379" type="curve"/>
      <point x="213" y="389"/>
      <point x="224" y="398"/>
      <point x="236" y="406" type="curve"/>
      <point x="231" y="403"/>
      <point x="227" y="399"/>
      <point x="222" y="396" type="curve"/>
      <point x="237" y="406"/>
      <point x="252" y="414"/>
      <point x="269" y="421" type="curve"/>
      <point x="264" y="419"/>
      <point x="259" y="417"/>
      <point x="254" y="415" type="curve"/>
      <point x="278" y="424"/>
      <point x="302" y="430"/>
      <point x="328" y="434" type="curve"/>
      <point x="323" y="433"/>
      <point x="318" y="432"/>
      <point x="313" y="432" type="curve"/>
      <point x="361" y="438"/>
      <point x="410" y="436"/>
      <point x="458" y="428" type="curve"/>
      <point x="453" y="429"/>
      <point x="449" y="429"/>
      <point x="445" y="430" type="curve"/>
      <point x="468" y="426"/>
      <point x="491" y="422"/>
      <point x="514" y="416" type="curve" smooth="yes"/>
      <point x="546" y="408"/>
      <point x="577" y="431"/>
      <point x="592" y="458" type="curve" smooth="yes"/>
      <point x="600" y="472"/>
      <point x="604" y="488"/>
      <point x="602" y="503" type="curve" smooth="yes"/>
      <point x="600" y="515"/>
      <point x="591" y="528"/>
      <point x="578" y="532" type="curve"/>
    </contour>
  </outline>
</glyph>
<glyph name="minus" format="1">
  <advance width="500"/>
  <unicode hex="2212"/>
  <outline>
    <contour>
      <point x="38" y="385" type="curve" smooth="yes"/>
      <point x="26" y="370"/>
      <point x="32" y="291"/>
      <point x="37" y="270" type="curve" smooth="yes"/>
      <point x="42" y="249"/>
      <point x="423" y="249"/>
      <point x="451" y="264" type="curve" smooth="yes"/>
      <point x="479" y="279"/>
      <point x="473" y="381"/>
      <point x="460" y="386" type="curve" smooth="yes"/>
      <point x="447" y="391"/>
      <point x="50" y="400"/>
    </contour>
  </outline>
</glyph>
<glyph name="dharma" format="1">
  <advance width="692"/>
  <unicode hex="2638"/>
  <outline>
    <contour>
      <point x="302" y="594" type="curve" smooth="yes"/>
      <point x="301" y="594" type="line" smooth="yes"/>
      <point x="144" y="590"/>
      <point x="102" y="449"/>
      <point x="100" y="332" type="curve" smooth="yes"/>
      <point x="98" y="243"/>
      <point x="147" y="95"/>
      <point x="318" y="96" type="curve" smooth="yes"/>
      <point x="458" y="97"/>
      <point x="526" y="243"/>
      <point x="527" y="332" type="curve" smooth="yes"/>
      <point x="528" y="449"/>
      <point x="447" y="598"/>
    </contour>
    <contour>
      <point x="326" y="238" type="curve" smooth="yes"/>
      <point x="272" y="238"/>
      <point x="227" y="283"/>
      <point x="227" y="340" type="curve" smooth="yes"/>
      <point x="227" y="397"/>
      <point x="272" y="442"/>
      <point x="326" y="442" type="curve" smooth="yes"/>
      <point x="380" y="442"/>
      <point x="426" y="397"/>
      <point x="426" y="340" type="curve" smooth="yes"/>
      <point x="426" y="283"/>
      <point x="380" y="238"/>
    </contour>
    <contour>
      <point x="300" y="636" type="line"/>
      <point x="469" y="640"/>
      <point x="570" y="471"/>
      <point x="569" y="332" type="curve" smooth="yes"/>
      <point x="568" y="225"/>
      <point x="484" y="55"/>
      <point x="318" y="54" type="curve" smooth="yes"/>
      <point x="117" y="53"/>
      <point x="56" y="227"/>
      <point x="58" y="332" type="curve" smooth="yes"/>
      <point x="60" y="473"/>
      <point x="118" y="632"/>
      <point x="301" y="636" type="curve"/>
    </contour>
    <contour>
      <point x="312" y="729" type="curve" smooth="yes"/>
      <point x="327" y="688"/>
      <point x="376" y="28"/>
      <point x="335" y="-5" type="curve" smooth="yes"/>
      <point x="326" y="-12"/>
      <point x="313" y="-11"/>
      <point x="306" y="-2" type="curve" smooth="yes"/>
      <point x="299" y="7"/>
      <point x="300" y="20"/>
      <point x="309" y="27" type="curve" smooth="yes"/>
      <point x="348" y="58"/>
      <point x="287" y="676"/>
      <point x="272" y="713" type="curve" smooth="yes"/>
      <point x="268" y="724"/>
      <point x="274" y="737"/>
      <point x="284" y="741" type="curve" smooth="yes"/>
      <point x="295" y="745"/>
      <point x="308" y="739"/>
    </contour>
    <contour>
      <point x="19" y="339" type="curve" smooth="yes"/>
      <point x="78" y="356"/>
      <point x="591" y="370"/>
      <point x="628" y="353" type="curve" smooth="yes"/>
      <point x="638" y="348"/>
      <point x="643" y="335"/>
      <point x="638" y="325" type="curve" smooth="yes"/>
      <point x="633" y="315"/>
      <point x="620" y="310"/>
      <point x="610" y="315" type="curve" smooth="yes"/>
      <point x="575" y="332"/>
      <point x="86" y="314"/>
      <point x="31" y="299" type="curve" smooth="yes"/>
      <point x="20" y="296"/>
      <point x="8" y="302"/>
      <point x="5" y="313" type="curve" smooth="yes"/>
      <point x="2" y="324"/>
      <point x="8" y="336"/>
    </contour>
    <contour>
      <point x="42" y="17" type="curve" smooth="yes"/>
      <point x="71" y="71"/>
      <point x="475" y="600"/>
      <point x="545" y="634" type="curve" smooth="yes"/>
      <point x="555" y="639"/>
      <point x="568" y="634"/>
      <point x="573" y="624" type="curve" smooth="yes"/>
      <point x="578" y="614"/>
      <point x="573" y="601"/>
      <point x="563" y="596" type="curve" smooth="yes"/>
      <point x="495" y="564"/>
      <point x="107" y="49"/>
      <point x="80" y="-3" type="curve" smooth="yes"/>
      <point x="74" y="-13"/>
      <point x="61" y="-17"/>
      <point x="51" y="-12" type="curve" smooth="yes"/>
      <point x="41" y="-6"/>
      <point x="37" y="7"/>
    </contour>
    <contour>
      <point x="96" y="663" type="curve" smooth="yes"/>
      <point x="144" y="639"/>
      <point x="551" y="93"/>
      <point x="576" y="36" type="curve" smooth="yes"/>
      <point x="581" y="25"/>
      <point x="576" y="12"/>
      <point x="566" y="8" type="curve" smooth="yes"/>
      <point x="555" y="3"/>
      <point x="542" y="8"/>
      <point x="538" y="18" type="curve" smooth="yes"/>
      <point x="513" y="73"/>
      <point x="124" y="603"/>
      <point x="78" y="625" type="curve" smooth="yes"/>
      <point x="68" y="630"/>
      <point x="63" y="643"/>
      <point x="68" y="653" type="curve" smooth="yes"/>
      <point x="73" y="663"/>
      <point x="86" y="668"/>
    </contour>
    <contour>
      <point x="326" y="258" type="curve" smooth="yes"/>
      <point x="369" y="258"/>
      <point x="405" y="296"/>
      <point x="405" y="340" type="curve" smooth="yes"/>
      <point x="405" y="383"/>
      <point x="369" y="423"/>
      <point x="326" y="423" type="curve" smooth="yes"/>
      <point x="282" y="423"/>
      <point x="248" y="383"/>
      <point x="248" y="340" type="curve" smooth="yes"/>
      <point x="248" y="296"/>
      <point x="282" y="258"/>
    </contour>
  </outline>
</glyph>
<glyph name="heart" format="1">
  <advance width="500"/>
  <unicode hex="2665"/>
  <outline>
    <contour>
      <point x="343" y="-220" type="line"/>
      <point x="355" y="-212" type="line"/>
      <point x="342" y="-208" type="line"/>
      <point x="344" y="-214" type="line"/>
    </contour>
    <contour>
      <point x="277" y="-234" type="line"/>
      <point x="276" y="-233" type="line"/>
      <point x="278" y="-227" type="line"/>
      <point x="274" y="-223" type="line"/>
      <point x="275" y="-221" type="line"/>
      <point x="280" y="-226" type="line"/>
    </contour>
    <contour>
      <point x="285" y="-232" type="line"/>
      <point x="283" y="-231" type="line"/>
      <point x="286" y="-225" type="line"/>
      <point x="282" y="-221" type="line"/>
      <point x="283" y="-219" type="line"/>
      <point x="288" y="-224" type="line"/>
    </contour>
    <contour>
      <point x="279" y="-229" type="line"/>
      <point x="278" y="-225" type="line"/>
      <point x="344" y="-212" type="line"/>
      <point x="345" y="-216" type="line"/>
    </contour>
    <contour>
      <point x="281" y="-233" type="line"/>
      <point x="280" y="-232" type="line"/>
      <point x="282" y="-226" type="line"/>
      <point x="278" y="-222" type="line"/>
      <point x="279" y="-220" type="line"/>
      <point x="284" y="-225" type="line"/>
    </contour>
    <contour>
      <point x="312" y="-243" type="curve"/>
      <point x="290" y="-227"/>
      <point x="281" y="-209"/>
      <point x="294" y="-199" type="curve" smooth="yes"/>
      <point x="302" y="-193"/>
      <point x="311" y="-200"/>
      <point x="312" y="-206" type="curve"/>
      <point x="315" y="-199"/>
      <point x="321" y="-195"/>
      <point x="329" y="-198" type="curve" smooth="yes"/>
      <point x="336" y="-201"/>
      <point x="347" y="-217"/>
    </contour>
  </outline>
</glyph>
<glyph name="left_flourish" format="1">
  <advance width="800"/>
  <unicode hex="269E"/>
  <outline>
    <contour>
      <point x="397" y="558" type="curve"/>
      <point x="386" y="563"/>
      <point x="418" y="659"/>
      <point x="427" y="659" type="curve" smooth="yes"/>
      <point x="439" y="661"/>
      <point x="682" y="581"/>
      <point x="691" y="574" type="curve"/>
      <point x="697" y="569"/>
      <point x="705" y="469"/>
      <point x="685" y="474" type="curve" smooth="yes"/>
      <point x="654" y="478"/>
      <point x="411" y="549"/>
    </contour>
    <contour>
      <point x="393" y="172" type="curve"/>
      <point x="407" y="181"/>
      <point x="654" y="255"/>
      <point x="685" y="259" type="curve" smooth="yes"/>
      <point x="705" y="264"/>
      <point x="697" y="164"/>
      <point x="691" y="159" type="curve"/>
      <point x="682" y="152"/>
      <point x="435" y="69"/>
      <point x="423" y="71" type="curve" smooth="yes"/>
      <point x="414" y="71"/>
      <point x="382" y="167"/>
    </contour>
    <contour>
      <point x="754" y="417" type="curve" smooth="yes"/>
      <point x="769" y="403"/>
      <point x="764" y="339"/>
      <point x="755" y="317" type="curve" smooth="yes"/>
      <point x="747" y="293"/>
      <point x="154" y="306"/>
      <point x="59" y="306" type="curve" smooth="yes"/>
      <point x="44" y="306"/>
      <point x="29" y="417"/>
      <point x="52" y="419" type="curve" smooth="yes"/>
      <point x="75" y="421"/>
      <point x="725" y="444"/>
    </contour>
  </outline>
</glyph>
<glyph name="right_flourish" format="1">
  <advance width="787"/>
  <unicode hex="269F"/>
  <outline>
    <contour>
      <point x="44" y="417" type="curve" smooth="yes"/>
      <point x="73" y="444"/>
      <point x="723" y="421"/>
      <point x="746" y="419" type="curve" smooth="yes"/>
      <point x="769" y="417"/>
      <point x="754" y="306"/>
      <point x="739" y="306" type="curve" smooth="yes"/>
      <point x="644" y="306"/>
      <point x="51" y="293"/>
      <point x="43" y="317" type="curve" smooth="yes"/>
      <point x="34" y="339"/>
      <point x="29" y="403"/>
    </contour>
    <contour>
      <point x="405" y="172" type="curve"/>
      <point x="416" y="167"/>
      <point x="384" y="71"/>
      <point x="375" y="71" type="curve" smooth="yes"/>
      <point x="363" y="69"/>
      <point x="116" y="152"/>
      <point x="107" y="159" type="curve"/>
      <point x="101" y="164"/>
      <point x="93" y="264"/>
      <point x="113" y="259" type="curve" smooth="yes"/>
      <point x="144" y="255"/>
      <point x="391" y="181"/>
    </contour>
    <contour>
      <point x="401" y="558" type="curve"/>
      <point x="387" y="549"/>
      <point x="144" y="478"/>
      <point x="113" y="474" type="curve" smooth="yes"/>
      <point x="93" y="469"/>
      <point x="101" y="569"/>
      <point x="107" y="574" type="curve"/>
      <point x="116" y="581"/>
      <point x="359" y="661"/>
      <point x="371" y="659" type="curve" smooth="yes"/>
      <point x="380" y="659"/>
      <point x="412" y="563"/>
    </contour>
  </outline>
</glyph>
<glyph name="j_a" format="1">
  <advance width="926"/>
  <unicode hex="3042"/>
  <outline>
    <contour>
      <point x="354" y="732" type="curve" smooth="yes"/>
      <point x="373" y="760"/>
      <point x="462" y="751"/>
      <point x="463" y="738" type="curve" smooth="yes"/>
      <point x="468" y="679"/>
      <point x="499" y="105"/>
      <point x="536" y="20" type="curve" smooth="yes"/>
      <point x="558" y="-31"/>
      <point x="428" y="-29"/>
      <point x="416" y="8" type="curve" smooth="yes"/>
      <point x="405" y="42"/>
      <point x="340" y="712"/>
    </contour>
    <contour>
      <point x="143" y="659" type="curve" smooth="yes"/>
      <point x="275" y="637"/>
      <point x="586" y="631"/>
      <point x="726" y="680" type="curve" smooth="yes"/>
      <point x="752" y="689"/>
      <point x="761" y="581"/>
      <point x="737" y="578" type="curve" smooth="yes"/>
      <point x="697" y="573"/>
      <point x="184" y="547"/>
      <point x="130" y="565" type="curve" smooth="yes"/>
      <point x="103" y="574"/>
      <point x="124" y="662"/>
    </contour>
    <contour>
      <point x="815" y="374" type="curve" smooth="yes"/>
      <point x="780" y="317"/>
      <point x="570" y="46"/>
      <point x="339" y="46" type="curve" smooth="yes"/>
      <point x="137" y="46"/>
      <point x="85" y="148"/>
      <point x="82" y="222" type="curve" smooth="yes"/>
      <point x="75" y="398"/>
      <point x="415" y="490"/>
      <point x="585" y="417" type="curve" smooth="yes"/>
      <point x="755" y="344"/>
      <point x="860" y="178"/>
      <point x="858" y="139" type="curve" smooth="yes"/>
      <point x="857" y="119"/>
      <point x="787" y="77"/>
      <point x="763" y="78" type="curve" smooth="yes"/>
      <point x="724" y="80"/>
      <point x="656" y="272"/>
      <point x="532" y="331" type="curve" smooth="yes"/>
      <point x="399" y="394"/>
      <point x="185" y="328"/>
      <point x="194" y="222" type="curve" smooth="yes"/>
      <point x="201" y="141"/>
      <point x="263" y="120"/>
      <point x="338" y="124" type="curve" smooth="yes"/>
      <point x="413" y="128"/>
      <point x="584" y="215"/>
      <point x="706" y="435" type="curve" smooth="yes"/>
      <point x="727" y="473"/>
      <point x="835" y="407"/>
    </contour>
  </outline>
</glyph>
<glyph name="j_i" format="1">
  <advance width="718"/>
  <unicode hex="3044"/>
  <outline>
    <contour>
      <point x="142" y="599" type="curve"/>
      <point x="208" y="386"/>
      <point x="352" y="144"/>
      <point x="432" y="157" type="curve" smooth="yes"/>
      <point x="469" y="163"/>
      <point x="433" y="68"/>
      <point x="405" y="56" type="curve"/>
      <point x="295" y="8"/>
      <point x="199" y="167"/>
      <point x="152" y="252" type="curve"/>
      <point x="107" y="336"/>
      <point x="37" y="495"/>
      <point x="34" y="533" type="curve"/>
      <point x="31" y="558"/>
      <point x="130" y="641"/>
    </contour>
    <contour>
      <point x="459" y="693" type="curve" smooth="yes"/>
      <point x="476" y="690"/>
      <point x="668" y="571"/>
      <point x="668" y="327" type="curve"/>
      <point x="668" y="267"/>
      <point x="579" y="227"/>
      <point x="540" y="247" type="curve"/>
      <point x="499" y="267"/>
      <point x="523" y="303"/>
      <point x="552" y="320" type="curve"/>
      <point x="575" y="334"/>
      <point x="496" y="575"/>
      <point x="375" y="612" type="curve"/>
      <point x="331" y="625"/>
      <point x="430" y="700"/>
    </contour>
  </outline>
</glyph>
<glyph name="j_u" format="1">
  <advance width="658"/>
  <unicode hex="3044"/>
  <outline>
    <contour>
      <point x="403" y="10" type="curve" smooth="yes"/>
      <point x="271" y="-64"/>
      <point x="63" y="49"/>
      <point x="-1" y="456" type="curve" smooth="yes"/>
      <point x="-10" y="508"/>
      <point x="28" y="559"/>
      <point x="80" y="567" type="curve" smooth="yes"/>
      <point x="132" y="576"/>
      <point x="183" y="538"/>
      <point x="191" y="486" type="curve" smooth="yes"/>
      <point x="167" y="639"/>
      <point x="223" y="132"/>
      <point x="307" y="180" type="curve" smooth="yes"/>
      <point x="353" y="206"/>
      <point x="414" y="189"/>
      <point x="440" y="143" type="curve" smooth="yes"/>
      <point x="466" y="97"/>
      <point x="449" y="36"/>
    </contour>
    <contour>
      <point x="466" y="310" type="curve" smooth="yes"/>
      <point x="481" y="357"/>
      <point x="468" y="522"/>
      <point x="361" y="552" type="curve" smooth="yes"/>
      <point x="311" y="566"/>
      <point x="280" y="622"/>
      <point x="294" y="673" type="curve" smooth="yes"/>
      <point x="308" y="723"/>
      <point x="364" y="754"/>
      <point x="415" y="740" type="curve" smooth="yes"/>
      <point x="626" y="680"/>
      <point x="685" y="349"/>
      <point x="652" y="250" type="curve" smooth="yes"/>
      <point x="635" y="199"/>
      <point x="579" y="171"/>
      <point x="529" y="187" type="curve" smooth="yes"/>
      <point x="478" y="204"/>
      <point x="450" y="260"/>
    </contour>
    <contour>
      <point x="95" y="471" type="move"/>
      <point x="115" y="344"/>
      <point x="247" y="34"/>
      <point x="355" y="95" type="curve"/>
    </contour>
    <contour>
      <point x="388" y="646" type="move"/>
      <point x="547" y="601"/>
      <point x="583" y="353"/>
      <point x="559" y="280" type="curve"/>
    </contour>
  </outline>
</glyph>
<glyph name="ju" format="1">
  <advance width="604"/>
  <unicode hex="3046"/>
  <outline>
    <contour>
      <point x="167" y="781" type="curve" smooth="yes"/>
      <point x="274" y="768"/>
      <point x="419" y="707"/>
      <point x="491" y="671" type="curve" smooth="yes"/>
      <point x="538" y="648"/>
      <point x="559" y="589"/>
      <point x="536" y="542" type="curve" smooth="yes"/>
      <point x="513" y="495"/>
      <point x="454" y="474"/>
      <point x="407" y="497" type="curve" smooth="yes"/>
      <point x="347" y="525"/>
      <point x="230" y="578"/>
      <point x="143" y="589" type="curve" smooth="yes"/>
      <point x="91" y="595"/>
      <point x="52" y="645"/>
      <point x="59" y="697" type="curve" smooth="yes"/>
      <point x="65" y="749"/>
      <point x="115" y="788"/>
    </contour>
    <contour>
      <point x="117" y="505" type="curve" smooth="yes"/>
      <point x="310" y="526"/>
      <point x="519" y="494"/>
      <point x="565" y="327" type="curve" smooth="yes"/>
      <point x="613" y="155"/>
      <point x="395" y="50"/>
      <point x="289" y="-1" type="curve" smooth="yes"/>
      <point x="242" y="-24"/>
      <point x="183" y="-3"/>
      <point x="160" y="44" type="curve" smooth="yes"/>
      <point x="137" y="91"/>
      <point x="158" y="150"/>
      <point x="205" y="173" type="curve" smooth="yes"/>
      <point x="227" y="184"/>
      <point x="403" y="187"/>
      <point x="379" y="275" type="curve" smooth="yes"/>
      <point x="353" y="368"/>
      <point x="204" y="320"/>
      <point x="137" y="313" type="curve" smooth="yes"/>
      <point x="85" y="307"/>
      <point x="36" y="347"/>
      <point x="31" y="399" type="curve" smooth="yes"/>
      <point x="25" y="451"/>
      <point x="65" y="500"/>
    </contour>
  </outline>
</glyph>
<glyph name="crocusofcopper2" format="1">
  <advance width="1011"/>
  <unicode hex="1F724"/>
  <outline>
    <contour>
      <point x="13" y="364" type="curve" smooth="yes"/>
      <point x="6" y="519"/>
      <point x="109" y="623"/>
      <point x="295" y="641" type="curve" smooth="yes"/>
      <point x="480" y="657"/>
      <point x="553" y="416"/>
      <point x="546" y="335" type="curve" smooth="yes"/>
      <point x="539" y="256"/>
      <point x="461" y="70"/>
      <point x="288" y="81" type="curve" smooth="yes"/>
      <point x="116" y="92"/>
      <point x="19" y="211"/>
    </contour>
    <contour>
      <point x="293" y="508" type="curve"/>
      <point x="183" y="501"/>
      <point x="140" y="440"/>
      <point x="140" y="353" type="curve" smooth="yes"/>
      <point x="140" y="267"/>
      <point x="161" y="185"/>
      <point x="293" y="194" type="curve" smooth="yes"/>
      <point x="386" y="201"/>
      <point x="404" y="239"/>
      <point x="413" y="327" type="curve" smooth="yes"/>
      <point x="419" y="416"/>
      <point x="389" y="497"/>
    </contour>
    <contour>
      <point x="245" y="591" type="curve" smooth="yes"/>
      <point x="265" y="603"/>
      <point x="279" y="598"/>
      <point x="306" y="587" type="curve" smooth="yes"/>
      <point x="332" y="578"/>
      <point x="323" y="166"/>
      <point x="317" y="137" type="curve" smooth="yes"/>
      <point x="311" y="106"/>
      <point x="278" y="119"/>
      <point x="250" y="133" type="curve" smooth="yes"/>
      <point x="224" y="149"/>
      <point x="227" y="579"/>
    </contour>
    <contour>
      <point x="269" y="387" type="curve" smooth="yes"/>
      <point x="294" y="419"/>
      <point x="948" y="391"/>
      <point x="971" y="389" type="curve" smooth="yes"/>
      <point x="994" y="387"/>
      <point x="998" y="306"/>
      <point x="964" y="306" type="curve" smooth="yes"/>
      <point x="869" y="306"/>
      <point x="276" y="293"/>
      <point x="268" y="317" type="curve" smooth="yes"/>
      <point x="259" y="339"/>
      <point x="246" y="357"/>
    </contour>
    <contour>
      <point x="967" y="528" type="curve" smooth="yes"/>
      <point x="829" y="514"/>
      <point x="770" y="481"/>
      <point x="777" y="330" type="curve" smooth="yes"/>
      <point x="783" y="209"/>
      <point x="835" y="206"/>
      <point x="971" y="185" type="curve" smooth="yes"/>
      <point x="1004" y="180"/>
      <point x="998" y="60"/>
      <point x="972" y="62" type="curve" smooth="yes"/>
      <point x="809" y="75"/>
      <point x="664" y="104"/>
      <point x="656" y="328" type="curve" smooth="yes"/>
      <point x="645" y="621"/>
      <point x="916" y="639"/>
      <point x="962" y="639" type="curve" smooth="yes"/>
      <point x="985" y="639"/>
      <point x="980" y="529"/>
    </contour>
  </outline>
</glyph>
<glyph name="ninetynine" format="1">
  <advance width="574"/>
  <outline>
    <contour>
      <point x="418" y="494" type="curve" smooth="yes"/>
      <point x="386" y="496"/>
      <point x="378" y="508"/>
      <point x="379" y="547" type="curve" smooth="yes"/>
      <point x="381" y="587"/>
      <point x="398" y="607"/>
      <point x="427" y="605" type="curve" smooth="yes"/>
      <point x="458" y="602"/>
      <point x="479" y="576"/>
      <point x="475" y="551" type="curve" smooth="yes"/>
      <point x="472" y="519"/>
      <point x="457" y="491"/>
    </contour>
    <contour>
      <point x="425" y="326" type="curve"/>
      <point x="442" y="332"/>
      <point x="550" y="476"/>
      <point x="557" y="540" type="curve" smooth="yes"/>
      <point x="564" y="605"/>
      <point x="547" y="674"/>
      <point x="457" y="690" type="curve" smooth="yes"/>
      <point x="367" y="707"/>
      <point x="306" y="631"/>
      <point x="301" y="555" type="curve" smooth="yes"/>
      <point x="295" y="472"/>
      <point x="333" y="421"/>
      <point x="423" y="414" type="curve"/>
      <point x="389" y="381"/>
      <point x="365" y="342"/>
      <point x="366" y="337" type="curve" smooth="yes"/>
      <point x="367" y="326"/>
      <point x="400" y="318"/>
    </contour>
    <contour>
      <point x="138" y="494" type="curve" smooth="yes"/>
      <point x="106" y="496"/>
      <point x="98" y="508"/>
      <point x="99" y="547" type="curve" smooth="yes"/>
      <point x="101" y="587"/>
      <point x="118" y="607"/>
      <point x="147" y="605" type="curve" smooth="yes"/>
      <point x="178" y="602"/>
      <point x="199" y="576"/>
      <point x="195" y="551" type="curve" smooth="yes"/>
      <point x="192" y="519"/>
      <point x="177" y="491"/>
    </contour>
    <contour>
      <point x="145" y="326" type="curve"/>
      <point x="162" y="332"/>
      <point x="270" y="476"/>
      <point x="277" y="540" type="curve" smooth="yes"/>
      <point x="284" y="605"/>
      <point x="267" y="674"/>
      <point x="177" y="690" type="curve" smooth="yes"/>
      <point x="87" y="707"/>
      <point x="26" y="631"/>
      <point x="21" y="555" type="curve" smooth="yes"/>
      <point x="15" y="472"/>
      <point x="53" y="421"/>
      <point x="143" y="414" type="curve"/>
      <point x="109" y="381"/>
      <point x="85" y="342"/>
      <point x="86" y="337" type="curve" smooth="yes"/>
      <point x="87" y="326"/>
      <point x="120" y="318"/>
    </contour>
  </outline>
</glyph>
